<svg width="1536" height="1024" version="1.1" xmlns="http://www.w3.org/2000/svg" desc="Created with imagetracer.js version 1.2.6" ><path fill="rgb(62,34,12)" stroke="rgb(62,34,12)" stroke-width="1" opacity="0.9882352941176471" d="M 487.5 268 L 504.5 268 L 505.5 269 L 514.5 269 L 515.5 270 L 522.5 270 L 539.5 273 L 543.5 275 L 554.5 277 L 581.5 287 Q 629.1 308.4 663 343.5 Q 688.4 369.1 709 399.5 Q 729.9 428.6 745 463.5 L 760.5 481 L 776.5 490 L 790.5 494 L 798.5 494 L 799.5 495 L 801.5 494 L 802.5 495 L 810.5 495 L 811.5 494 L 823.5 494 L 837.5 491 Q 856.7 482.2 879.5 477 Q 885 478.5 886.5 476 L 913.5 476 L 916.5 475 L 932.5 461 L 950.5 451 Q 957 447.5 968.5 449 L 975 453.5 Q 978.3 457.2 977 465.5 Q 973.2 478.7 965 487.5 L 971.5 488 L 986.5 494 Q 1005.3 505.7 1019 522.5 L 1041 550.5 L 1039.5 550 L 1031.5 548 L 1033 550.5 Q 1042.1 563.4 1047 580.5 L 1049 591.5 L 1049 607.5 L 1045 624 L 1096.5 637 L 1118.5 644 L 1122.5 644 L 1169.5 656 L 1178.5 660 L 1201.5 666 L 1211.5 670 L 1256.5 682 L 1283.5 691 L 1300 700 L 1304 706.5 L 1305 713.5 L 1300.5 721 Q 1292.6 729.1 1275.5 728 L 1274.5 727 L 1261.5 727 L 1260.5 726 L 1216.5 725 L 1215.5 724 L 1139.5 724 L 1138.5 725 L 1103.5 725 L 1102.5 726 L 1075.5 726 L 1074.5 727 L 1052.5 727 L 1051.5 728 L 987.5 730 L 986.5 731 L 941.5 734 L 940.5 735 L 932.5 735 L 922.5 737 L 913.5 737 L 905.5 739 L 895.5 739 L 894.5 740 L 864.5 742 L 863.5 743 L 852.5 743 L 851.5 744 L 834.5 744 L 833.5 745 L 775.5 745 L 774.5 744 L 739.5 742 L 738.5 741 L 724.5 740 L 702.5 736 L 698.5 734 L 694.5 734 L 676.5 729 L 649.5 719 Q 621.7 706.8 598.5 690 Q 570 669 546 643.5 L 536.5 633 L 534 634.5 L 521 650.5 L 521 653.5 Q 530.3 683.7 552.5 701 L 563.5 708 L 586.5 718 L 594 724.5 Q 597.2 728.8 597 736.5 Q 595.4 743.5 590.5 747 L 583.5 751 L 572.5 754 L 548.5 754 L 532.5 751 L 514.5 744 Q 496.7 734.3 485 718.5 L 464 687.5 L 446 654.5 L 430 621.5 L 419 594.5 L 399 540.5 L 393 520.5 L 388 509.5 L 369 452.5 L 363 427.5 L 362 408.5 L 363 407.5 L 363 397.5 L 360 399.5 L 351.5 409 Q 346.3 413.3 337.5 414 L 330.5 412 L 325 407.5 Q 320.3 402.7 322 391.5 L 327 376.5 L 340 351.5 Q 352.3 333.3 368.5 319 Q 392.1 298.1 422.5 284 Q 439 276.5 458.5 272 L 468.5 270 L 475.5 270 L 476.5 269 L 486.5 269 L 487.5 268 Z M 474 296 L 462 304 L 453 316 L 426 371 L 417 401 L 412 429 L 404 450 L 395 454 Q 383 456 378 451 L 375 452 L 418 574 L 437 621 L 466 678 L 492 717 Q 504 731 522 740 L 539 746 L 550 747 L 551 748 L 570 748 L 579 746 L 587 742 L 590 738 L 589 730 L 581 722 L 559 713 L 546 704 Q 522 685 513 652 L 513 649 L 529 631 L 532 626 L 532 623 L 531 620 L 537 623 L 546 634 Q 568 658 595 678 Q 619 697 649 711 L 680 723 L 707 730 L 736 735 L 765 737 L 766 738 L 782 738 L 783 739 L 841 738 L 842 737 L 855 737 L 856 736 L 869 736 L 870 735 L 890 734 L 891 733 L 916 731 L 917 730 L 925 730 L 926 729 L 956 727 L 957 726 L 980 725 L 981 724 L 1030 722 L 1031 721 L 1055 721 L 1056 720 L 1114 719 L 1115 718 L 1221 718 L 1222 719 L 1265 720 L 1266 721 L 1288 721 L 1292 719 L 1297 713 L 1296 707 L 1286 699 L 1264 691 L 1181 668 L 1175 668 L 1159 673 L 1127 679 Q 1101 681 1088 671 L 1081 665 L 1080 657 L 1085 652 L 1090 652 L 1092 648 L 1100 646 L 1038 629 L 1021 627 L 1026 623 L 1035 624 Q 1040 617 1042 607 Q 1044 596 1040 591 L 1035 586 L 1028 587 Q 1021 595 1010 598 L 1002 605 L 995 602 L 981 601 L 977 599 L 963 588 L 950 584 L 908 562 L 879 541 L 863 525 L 855 508 L 847 495 L 835 499 L 824 501 L 816 501 L 815 502 L 796 502 L 781 499 L 757 487 L 753 485 L 757 506 L 756 525 L 754 533 L 749 545 L 744 551 Q 737 552 736 548 Q 716 532 703 510 L 702 519 Q 693 534 688 553 L 684 559 L 683 565 L 673 585 L 653 603 L 635 612 L 614 617 L 598 617 L 597 616 L 584 615 L 572 610 L 565 602 L 562 590 L 562 565 L 563 564 L 563 532 L 562 531 L 562 523 L 560 512 L 557 508 L 554 478 L 551 463 L 545 446 L 531 420 L 517 384 L 513 366 L 511 343 L 505 321 L 498 307 Q 493 299 485 296 L 474 296 Z " /><path fill="rgb(62,34,12)" stroke="rgb(62,34,12)" stroke-width="1" opacity="0.9882352941176471" d="M 781.5 510 L 786.5 511 L 793 517.5 L 795 520.5 L 800 525.5 L 812 553.5 Q 825.7 569.3 836 588.5 L 855 628.5 L 862 650.5 L 866 669.5 L 867 686.5 L 868 687.5 L 868 703.5 L 865 715.5 L 861.5 719 L 852.5 720 Q 850.7 717.3 844.5 719 L 831.5 713 L 801.5 691 L 775 666.5 Q 758.2 648.3 747 624.5 L 743 611.5 L 742 597.5 L 745 580.5 L 753 557.5 L 768 530.5 L 774 516.5 L 779.5 511 L 781.5 510 Z " /><path fill="rgb(0,0,0)" stroke="rgb(0,0,0)" stroke-width="1" opacity="0" d="M 0 0 L 84.5 0 L 85.5 1 L 86.5 0 L 494.5 0 L 496.5 0 L 590.5 0 L 591.5 1 L 592.5 0 L 1536 0 L 1536 1024 L 1127.5 1024 L 1125.5 1024 L 87.5 1024 L 87 1022.5 L 86 1022.5 L 85.5 1024 L 15.5 1024 L 13.5 1024 L 0.5 1024 L 0 1023.5 L 0 0 Z M 476 264 L 476 266 L 474 267 L 476 268 Q 477 264 479 267 L 480 267 L 476 264 Z M 482 268 L 451 274 L 449 274 L 436 279 L 434 279 L 432 281 L 429 281 L 425 284 L 412 289 L 405 294 Q 401 293 402 296 L 394 300 L 379 311 Q 376 310 377 313 L 374 315 Q 371 314 372 317 L 364 324 Q 361 323 362 326 L 360 326 L 360 328 L 358 328 L 347 343 L 344 344 Q 345 347 342 349 Q 343 351 340 350 L 339 355 L 336 358 L 327 376 L 325 384 Q 321 385 324 387 L 321 396 L 323 403 L 321 406 L 323 406 L 325 407 L 325 409 Q 328 408 327 411 L 327 412 Q 329 413 328 411 L 329 411 Q 328 413 331 412 L 332 414 L 334 413 L 336 413 L 338 414 L 344 413 L 346 413 L 360 401 Q 359 397 363 399 L 363 408 L 362 409 L 362 419 L 363 420 L 362 423 L 364 429 L 363 431 L 365 434 L 364 436 Q 367 437 366 442 L 366 444 L 371 460 Q 367 461 371 463 L 372 461 L 379 483 L 379 484 L 378 482 L 377 487 Q 375 488 378 489 L 381 488 L 382 492 L 379 496 L 382 496 L 383 494 L 388 509 L 388 510 L 386 508 Q 387 505 384 506 L 385 510 Q 388 511 384 513 L 385 514 L 389 511 L 399 543 L 404 554 L 404 555 L 402 551 L 400 555 L 401 559 L 402 555 L 402 557 L 402 559 L 405 561 L 406 559 L 407 564 L 405 565 Q 406 567 408 565 L 418 593 L 416 593 L 417 598 Q 416 600 419 599 L 420 596 L 430 621 L 430 622 L 427 618 Q 428 615 426 616 Q 427 618 424 620 L 428 623 Q 427 625 431 624 L 437 636 L 437 637 L 434 632 Q 430 631 432 637 L 436 639 L 434 640 L 437 640 L 438 638 L 444 651 L 442 651 L 444 655 Q 443 657 447 656 L 451 665 L 452 666 L 449 664 L 450 667 L 450 668 L 449 667 L 448 667 L 449 670 L 448 672 L 450 671 L 456 672 L 464 689 L 466 691 Q 463 690 464 694 L 467 692 L 468 694 L 466 694 Q 465 696 469 695 L 477 708 L 475 706 L 474 708 L 472 708 L 473 710 L 475 709 Q 477 710 475 712 Q 481 711 482 715 L 480 715 L 481 717 L 479 718 L 482 718 L 483 720 L 484 719 L 483 716 L 500 735 L 500 736 L 506 738 L 520 748 L 519 747 L 517 748 L 526 752 L 530 750 L 530 752 L 532 751 L 540 753 L 541 755 L 541 753 L 546 755 L 545 755 L 545 756 L 549 756 L 548 755 L 548 754 L 562 756 L 556 757 L 561 758 L 563 757 L 564 755 L 565 757 L 566 755 L 566 757 L 569 757 L 567 756 L 575 754 L 575 755 Q 571 754 572 757 L 574 756 L 576 757 Q 578 756 576 755 L 592 747 L 597 739 Q 598 727 593 723 L 586 717 L 563 707 L 560 704 Q 557 705 558 703 L 557 703 L 549 697 Q 544 697 545 692 L 544 692 Q 528 676 521 652 Q 520 649 523 650 L 536 634 L 537 637 L 539 636 L 538 638 Q 539 640 541 638 L 548 646 L 546 644 L 544 647 Q 545 649 547 647 L 552 649 Q 554 650 552 652 Q 551 654 554 653 L 554 656 Q 561 656 564 662 L 562 660 L 560 662 L 564 664 L 566 663 L 574 670 Q 576 669 575 672 L 584 679 Q 586 678 585 681 L 585 682 L 587 681 L 602 692 L 603 695 L 605 694 L 611 699 L 610 699 L 608 699 L 609 703 L 610 701 L 612 701 L 614 700 L 638 714 Q 641 713 640 716 Q 638 717 641 718 L 642 715 L 655 721 L 654 723 L 655 724 L 658 722 Q 659 725 661 723 L 668 726 L 669 728 L 671 727 L 672 730 L 676 729 L 700 735 L 702 738 L 702 736 L 716 739 Q 721 737 720 742 L 725 744 L 727 744 Q 730 745 728 741 L 744 742 L 745 745 L 748 743 L 747 745 L 749 745 L 751 745 L 754 746 L 755 746 Q 754 743 750 744 L 750 743 L 757 744 L 757 746 Q 760 747 759 745 L 762 746 L 764 745 L 767 746 L 771 746 L 772 745 L 783 745 L 782 748 L 788 748 L 790 748 L 792 749 L 797 748 L 792 747 L 807 746 L 806 748 L 809 748 L 808 747 L 815 746 L 816 749 Q 818 748 816 747 L 825 745 L 837 746 L 831 747 L 833 748 L 836 747 Q 839 746 838 749 L 840 749 Q 838 745 842 746 Q 843 744 845 747 L 847 746 L 851 746 L 853 744 L 853 746 Q 856 747 855 744 L 869 743 L 870 742 L 878 742 L 879 743 L 882 741 L 889 742 L 888 744 L 891 744 Q 896 746 895 743 L 894 743 L 894 742 L 890 741 L 917 738 L 924 736 L 928 741 Q 930 740 928 739 L 931 738 L 931 736 L 933 737 L 932 739 L 934 738 Q 937 739 936 737 L 938 735 Q 944 737 946 734 L 955 735 L 950 736 L 962 736 L 964 736 L 967 735 L 966 732 L 969 733 L 970 732 L 994 731 Q 996 732 994 734 L 997 736 L 996 734 L 1002 733 L 998 731 L 998 730 L 1012 731 L 1002 732 L 1005 733 L 1006 732 L 1015 732 L 1017 734 Q 1016 729 1018 729 L 1034 729 L 1036 729 L 1039 730 Q 1040 733 1042 731 L 1043 733 L 1043 731 L 1044 731 L 1043 734 L 1045 736 L 1045 735 L 1045 733 L 1049 730 L 1050 728 L 1061 728 L 1062 730 L 1063 728 L 1063 730 L 1069 728 L 1068 730 L 1070 730 L 1072 730 L 1075 729 L 1072 728 L 1072 727 L 1077 728 L 1080 727 L 1084 727 Q 1083 730 1086 729 L 1087 726 Q 1089 725 1088 728 L 1088 729 L 1093 728 L 1089 727 L 1103 726 L 1104 725 L 1105 726 L 1114 726 L 1113 728 L 1127 728 L 1129 728 L 1131 727 L 1133 728 L 1136 727 L 1138 728 L 1140 728 L 1145 727 L 1142 726 L 1142 725 L 1146 726 L 1148 725 Q 1154 723 1152 728 L 1157 728 L 1159 728 L 1159 727 L 1159 725 L 1163 727 L 1166 725 L 1176 727 L 1177 725 L 1181 728 L 1181 726 L 1183 726 Q 1185 725 1184 728 L 1188 727 L 1191 728 L 1196 726 L 1198 727 L 1201 728 L 1203 727 L 1205 728 L 1211 728 L 1214 727 L 1216 728 L 1218 728 L 1222 727 Q 1223 729 1224 727 L 1205 726 L 1205 725 L 1226 725 L 1229 727 L 1228 726 L 1231 725 L 1232 726 L 1262 727 L 1264 727 L 1267 728 L 1278 728 L 1278 730 Q 1281 727 1289 728 L 1298 724 Q 1303 720 1306 713 L 1305 710 L 1305 708 L 1303 704 Q 1298 696 1289 693 Q 1286 694 1287 692 L 1286 692 L 1281 690 L 1279 690 L 1277 688 L 1265 685 L 1265 683 L 1264 685 L 1262 683 L 1255 682 L 1223 672 L 1221 672 L 1218 671 L 1216 668 L 1215 670 L 1195 664 L 1193 662 L 1192 662 Q 1193 664 1190 663 L 1190 661 L 1189 663 L 1181 660 L 1179 660 L 1174 658 L 1176 657 L 1176 656 L 1173 657 L 1165 655 L 1163 655 L 1153 651 L 1148 651 L 1138 648 L 1136 648 L 1134 647 L 1132 647 L 1130 646 L 1128 646 L 1121 643 L 1119 644 L 1113 641 L 1102 639 L 1098 637 Q 1093 638 1095 634 L 1092 635 L 1094 636 L 1092 636 L 1090 636 L 1087 634 L 1081 633 L 1079 633 L 1069 630 L 1072 629 Q 1073 626 1071 627 L 1069 627 L 1068 629 L 1065 629 L 1067 628 L 1067 627 L 1064 628 L 1054 626 L 1054 625 L 1053 624 L 1053 623 L 1052 622 L 1050 619 L 1052 615 Q 1054 616 1053 612 L 1055 612 L 1054 609 L 1057 608 L 1055 607 L 1056 603 L 1057 600 Q 1059 601 1058 599 L 1058 597 Q 1060 598 1059 596 L 1056 595 L 1059 590 L 1060 593 L 1061 591 L 1057 581 L 1059 580 L 1058 578 L 1054 579 L 1054 578 L 1054 576 L 1050 578 L 1051 581 L 1050 583 L 1045 570 L 1033 551 L 1032 548 L 1038 550 L 1040 550 L 1034 542 Q 1035 539 1032 540 L 1013 515 L 1012 515 L 996 500 L 989 496 L 989 495 Q 988 492 987 494 L 972 488 L 966 488 L 967 486 Q 966 483 969 484 L 969 482 L 974 473 Q 977 471 975 470 L 977 466 Q 978 457 975 454 L 968 448 L 967 449 L 957 449 L 955 449 L 946 454 L 945 452 L 943 453 L 944 455 L 934 461 L 931 461 L 930 464 Q 926 463 927 466 L 922 470 Q 919 469 920 472 L 914 476 L 893 476 L 892 475 L 886 477 L 875 478 L 859 483 L 857 483 Q 842 492 820 493 L 817 494 L 795 494 Q 793 492 789 493 L 789 491 L 787 492 L 781 491 L 780 488 L 777 489 Q 765 485 757 477 L 755 473 L 751 471 L 741 457 Q 731 433 718 413 L 689 373 L 674 356 Q 675 353 673 354 L 663 344 L 648 330 L 644 325 L 617 306 Q 614 307 615 304 L 613 304 L 596 294 Q 593 295 594 293 L 593 293 L 583 287 L 580 287 L 571 283 Q 569 279 568 282 L 565 281 Q 563 277 562 280 L 548 275 L 533 272 L 531 272 L 523 270 L 510 269 L 508 269 L 505 268 L 488 268 L 487 269 L 482 268 Z M 384 304 L 383 306 L 386 305 L 384 304 Z M 361 411 L 360 416 L 361 416 L 361 411 Z M 329 412 Q 326 417 330 416 L 330 414 L 329 412 Z M 345 414 L 343 415 L 343 416 L 347 415 L 345 414 Z M 944 448 L 944 451 L 946 450 L 948 451 L 948 450 L 944 448 Z M 368 464 L 368 466 L 370 465 L 371 467 Q 366 466 368 471 L 370 470 L 373 472 L 374 472 L 372 467 Q 373 462 368 464 Z M 849 480 Q 847 484 850 485 L 852 481 L 851 480 L 849 480 Z M 800 491 L 796 493 L 801 493 Q 802 490 800 491 Z M 816 491 L 813 492 L 813 493 Q 816 494 817 492 L 816 491 Z M 394 528 L 392 532 L 395 533 L 394 528 Z M 398 540 L 397 544 L 399 544 L 398 540 Z M 1045 547 Q 1045 550 1043 549 L 1041 549 Q 1040 551 1044 550 L 1044 552 L 1046 551 L 1045 547 Z M 1046 553 L 1044 557 L 1043 554 L 1041 555 L 1039 555 L 1040 559 Q 1042 562 1044 558 L 1044 560 L 1046 559 L 1045 557 L 1046 555 L 1046 553 Z M 1044 561 L 1045 563 L 1047 562 L 1044 561 Z M 1049 565 L 1047 567 L 1049 571 L 1051 570 L 1049 565 Z M 1052 573 L 1050 575 L 1051 577 L 1053 576 L 1052 573 Z M 411 575 L 408 576 L 409 578 L 411 577 L 411 575 Z M 421 603 L 421 607 L 422 607 Q 423 602 421 603 Z M 1057 623 Q 1055 626 1058 625 Q 1059 627 1060 625 L 1057 623 Z M 441 647 L 441 652 L 442 650 L 441 647 Z M 1189 657 L 1189 659 L 1192 659 Q 1193 656 1189 657 Z M 570 668 L 570 670 L 569 672 L 571 672 L 573 672 Q 574 669 571 670 L 571 668 L 570 668 Z M 578 675 Q 575 677 578 678 L 579 678 L 578 675 Z M 1271 682 L 1269 685 L 1271 685 L 1272 686 L 1271 682 Z M 585 683 L 585 686 Q 588 687 589 685 Q 588 682 585 683 Z M 599 691 L 598 693 Q 600 697 602 694 L 599 691 Z M 469 697 L 468 702 L 471 701 L 469 697 Z M 637 714 L 636 717 L 639 716 L 637 714 Z M 642 717 L 641 720 L 644 720 Q 645 716 642 717 Z M 657 723 L 657 725 L 655 725 Q 654 727 659 726 L 658 725 Q 659 722 657 723 Z M 1097 727 L 1097 728 L 1109 728 L 1097 727 Z M 1093 729 L 1091 732 L 1093 731 L 1093 729 Z M 495 730 Q 492 735 496 734 L 495 730 Z M 1018 730 L 1019 732 L 1023 731 L 1018 730 Z M 679 731 L 680 734 L 683 733 L 682 732 Q 680 735 679 731 Z M 983 732 L 983 733 L 990 733 L 990 735 L 992 734 L 992 732 L 983 732 Z M 970 733 L 968 735 Q 969 737 971 735 L 973 736 L 973 734 L 980 734 L 970 733 Z M 946 735 L 947 737 L 949 736 L 946 735 Z M 918 738 L 920 740 L 921 740 L 918 738 Z M 713 739 L 712 742 L 715 743 L 714 742 L 715 740 L 713 739 Z M 911 739 L 910 740 L 900 741 Q 901 743 903 741 L 905 742 L 915 740 L 911 739 Z M 506 740 L 505 742 L 509 742 L 506 740 Z M 730 742 L 731 744 L 734 743 L 730 742 Z M 882 742 L 882 744 L 886 743 L 887 744 L 887 742 L 882 742 Z M 738 743 L 738 744 L 743 744 L 738 743 Z M 871 743 L 870 745 L 878 744 L 871 743 Z M 799 747 L 800 750 L 801 748 L 799 747 Z M 999 819 Q 999 822 997 821 L 996 823 L 999 822 L 999 819 Z " /><path fill="rgb(0,0,0)" stroke="rgb(0,0,0)" stroke-width="1" opacity="0" d="M 1052.5 582 L 1053 584.5 L 1052.5 587 L 1051 584.5 L 1052.5 582 Z " /><path fill="rgb(0,0,0)" stroke="rgb(0,0,0)" stroke-width="1" opacity="0" d="M 1139.5 724 L 1140 726 L 1132 725.5 L 1139.5 724 Z " /><path fill="rgb(0,0,0)" stroke="rgb(0,0,0)" stroke-width="1" opacity="0" d="M 957.5 733 L 962 733.5 L 958.5 735 L 956 734.5 L 957.5 733 Z " /><path fill="rgb(0,0,0)" stroke="rgb(0,0,0)" stroke-width="1" opacity="0" d="M 721.5 740 L 727 740.5 L 721.5 741 L 721.5 740 Z " /><path fill="rgb(0,0,0)" stroke="rgb(0,0,0)" stroke-width="1" opacity="0" d="M 521.5 747 L 527 749.5 L 525.5 750 Q 521.5 749.5 521.5 747 Z " /><path fill="rgb(253,252,245)" stroke="rgb(253,252,245)" stroke-width="1" opacity="0.9450980392156862" d="M 1092.5 1 L 1093 2.5 L 1090.5 4 L 1090.5 3 Q 1093 3.7 1092.5 1 Z " /><path fill="rgb(253,252,245)" stroke="rgb(253,252,245)" stroke-width="1" opacity="0.9450980392156862" d="M 1044.5 123 L 1046 125.5 L 1044 126.5 L 1044 124.5 L 1044.5 123 Z " /><path fill="rgb(253,252,245)" stroke="rgb(253,252,245)" stroke-width="1" opacity="0.9450980392156862" d="M 83.5 213 L 87 214.5 L 86.5 216 L 85.5 214 Q 83.7 216.5 83.5 213 Z " /><path fill="rgb(253,252,245)" stroke="rgb(253,252,245)" stroke-width="1" opacity="0.9450980392156862" d="M 1044.5 251 L 1046 253.5 L 1044 254.5 L 1044 252.5 L 1044.5 251 Z " /><path fill="rgb(253,252,245)" stroke="rgb(253,252,245)" stroke-width="1" opacity="0.9450980392156862" d="M 495.5 256 L 496 258.5 L 494 259.5 L 495.5 256 Z " /><path fill="rgb(253,252,245)" stroke="rgb(253,252,245)" stroke-width="1" opacity="0.9450980392156862" d="M 476 264 L 478.5 265 L 480 264.5 L 479.5 267 L 477.5 268 L 474 266.5 L 476 266 L 476 264 Z " /><path fill="rgb(253,252,245)" stroke="rgb(253,252,245)" stroke-width="1" opacity="0.9450980392156862" d="M 495.5 264 Q 497.8 263.3 497 265.5 L 498 265.5 L 498.5 264 L 499 267 L 496.5 266 L 494.5 267 L 494.5 266 L 496 265.5 L 495.5 264 Z " /><path fill="rgb(253,252,245)" stroke="rgb(253,252,245)" stroke-width="1" opacity="0.9450980392156862" d="M 517.5 265 L 519 267.5 L 516 267.5 L 517.5 265 Z " /><path fill="rgb(253,252,245)" stroke="rgb(253,252,245)" stroke-width="1" opacity="0.9450980392156862" d="M 466.5 266 L 467.5 268 L 469 267.5 L 466 269 L 466.5 266 Z " /><path fill="rgb(253,252,245)" stroke="rgb(253,252,245)" stroke-width="1" opacity="0.9450980392156862" d="M 1044.5 268 L 1044.5 271 Q 1041.5 269.5 1044.5 268 Z " /><path fill="rgb(253,252,245)" stroke="rgb(253,252,245)" stroke-width="1" opacity="0.9450980392156862" d="M 448.5 272 L 448.5 275 L 446 273.5 L 448.5 272 Z " /><path fill="rgb(253,252,245)" stroke="rgb(253,252,245)" stroke-width="1" opacity="0.9450980392156862" d="M 576.5 281 L 576.5 284 Q 573.5 282.5 576.5 281 Z " /><path fill="rgb(253,252,245)" stroke="rgb(253,252,245)" stroke-width="1" opacity="0.9450980392156862" d="M 418.5 283 L 421 283.5 Q 418.9 286.8 418.5 283 Z " /><path fill="rgb(253,252,245)" stroke="rgb(253,252,245)" stroke-width="1" opacity="0.9450980392156862" d="M 578.5 283 L 582 285.5 L 580.5 286 L 578.5 283 Z " /><path fill="rgb(253,252,245)" stroke="rgb(253,252,245)" stroke-width="1" opacity="0.9450980392156862" d="M 473.5 296 L 484.5 296 Q 493.3 299.3 498 306.5 L 505 320.5 L 511 342.5 L 513 365.5 L 517 383.5 L 531 419.5 L 545 445.5 L 551 462.5 L 554 477.5 L 557 507.5 L 560 511.5 L 562 522.5 L 562 530.5 L 563 531.5 L 563 563.5 L 562 564.5 L 562 589.5 L 565 601.5 L 571.5 610 L 583.5 615 L 596.5 616 L 597.5 617 L 613.5 617 L 634.5 612 L 652.5 603 L 673 584.5 L 683 564.5 L 684 558.5 L 688 552.5 Q 693.3 533.8 702 518.5 L 702.5 510 Q 716.3 531.7 735.5 548 Q 737.4 551.6 743.5 551 L 749 544.5 L 754 532.5 L 756 524.5 L 757 505.5 L 753 484.5 L 756.5 487 L 780.5 499 L 795.5 502 L 814.5 502 L 815.5 501 L 823.5 501 L 834.5 499 L 846.5 495 L 855 507.5 L 863 524.5 L 878.5 541 L 907.5 562 L 949.5 584 L 962.5 588 L 976.5 599 L 980.5 601 L 994.5 602 L 1001.5 605 L 1009.5 598 Q 1020.7 594.7 1027.5 587 L 1034.5 586 L 1040 590.5 Q 1043.6 595.9 1042 606.5 Q 1040.1 617.1 1034.5 624 L 1025.5 623 L 1021 626.5 L 1037.5 629 L 1100 645.5 L 1092 648 L 1089.5 652 L 1084.5 652 L 1080 656.5 L 1081 664.5 L 1087.5 671 Q 1101.2 680.8 1126.5 679 L 1158.5 673 L 1174.5 668 L 1180.5 668 L 1263.5 691 L 1285.5 699 L 1296 706.5 L 1297 712.5 L 1291.5 719 L 1287.5 721 L 1265.5 721 L 1264.5 720 L 1221.5 719 L 1220.5 718 L 1114.5 718 L 1113.5 719 L 1055.5 720 L 1054.5 721 L 1030.5 721 L 1029.5 722 L 980.5 724 L 979.5 725 L 956.5 726 L 955.5 727 L 925.5 729 L 924.5 730 L 916.5 730 L 915.5 731 L 890.5 733 L 889.5 734 L 869.5 735 L 868.5 736 L 855.5 736 L 854.5 737 L 841.5 737 L 840.5 738 L 782.5 739 L 781.5 738 L 765.5 738 L 764.5 737 L 735.5 735 L 706.5 730 L 679.5 723 L 648.5 711 Q 618.9 697.1 594.5 678 Q 568.4 657.6 546 633.5 L 536.5 623 L 530.5 620 L 532 622.5 L 532 625.5 L 529 630.5 L 513 648.5 L 513 651.5 Q 522.4 684.6 545.5 704 L 558.5 713 L 580.5 722 L 589 729.5 L 590 737.5 L 586.5 742 L 578.5 746 L 569.5 748 L 550.5 748 L 549.5 747 L 538.5 746 L 521.5 740 Q 503.7 731.3 492 716.5 L 466 677.5 L 437 620.5 L 418 573.5 L 375 451.5 L 377.5 451 Q 382.7 455.8 394.5 454 L 404 449.5 L 412 428.5 L 417 400.5 L 426 370.5 L 453 315.5 L 461.5 304 L 473.5 296 Z M 782 510 L 780 511 L 774 517 L 768 531 L 753 558 L 745 581 L 742 598 L 743 612 L 747 625 Q 758 648 775 667 L 802 691 L 832 713 L 845 719 Q 851 717 853 720 L 862 719 L 865 716 L 868 704 L 868 688 L 867 687 L 866 670 L 862 651 L 855 629 L 836 589 Q 826 569 812 554 L 800 526 L 795 521 L 793 518 L 787 511 L 782 510 Z " /><path fill="rgb(253,252,245)" stroke="rgb(253,252,245)" stroke-width="1" opacity="0.9450980392156862" d="M 383.5 304 L 386 304.5 L 382.5 306 L 383.5 304 Z " /><path fill="rgb(253,252,245)" stroke="rgb(253,252,245)" stroke-width="1" opacity="0.9450980392156862" d="M 337.5 351 L 337.5 354 Q 335.3 354.8 336 352.5 L 337.5 351 Z " /><path fill="rgb(253,252,245)" stroke="rgb(253,252,245)" stroke-width="1" opacity="0.9450980392156862" d="M 84.5 356 Q 87.5 357.5 84.5 359 L 84.5 356 Z " /><path fill="rgb(253,252,245)" stroke="rgb(253,252,245)" stroke-width="1" opacity="0.9450980392156862" d="M 181.5 360 L 184 360.5 Q 181.9 363.8 181.5 360 Z " /><path fill="rgb(253,252,245)" stroke="rgb(253,252,245)" stroke-width="1" opacity="0.9450980392156862" d="M 85.5 373 L 86.5 375 L 84 374.5 L 85.5 373 Z " /><path fill="rgb(253,252,245)" stroke="rgb(253,252,245)" stroke-width="1" opacity="0.9450980392156862" d="M 321.5 376 L 323 376.5 L 321 377 L 322 380.5 L 319 378.5 L 321.5 376 Z " /><path fill="rgb(253,252,245)" stroke="rgb(253,252,245)" stroke-width="1" opacity="0.9450980392156862" d="M 1044.5 379 L 1046 381.5 Q 1044.5 384.5 1043 381.5 L 1044.5 379 Z " /><path fill="rgb(253,252,245)" stroke="rgb(253,252,245)" stroke-width="1" opacity="0.9450980392156862" d="M 83.5 397 L 86 397.5 Q 83.9 400.8 83.5 397 Z " /><path fill="rgb(253,252,245)" stroke="rgb(253,252,245)" stroke-width="1" opacity="0.9450980392156862" d="M 319.5 402 L 323 403.5 L 324 406.5 L 322.5 406 L 320 404.5 L 319.5 402 Z " /><path fill="rgb(253,252,245)" stroke="rgb(253,252,245)" stroke-width="1" opacity="0.9450980392156862" d="M 359.5 402 Q 361.8 401.3 361 403.5 Q 363.3 404.8 360.5 406 L 359.5 402 Z " /><path fill="rgb(253,252,245)" stroke="rgb(253,252,245)" stroke-width="1" opacity="0.9450980392156862" d="M 325.5 410 L 328 410.5 L 328.5 412 L 330 411.5 L 329.5 416 L 328 416 L 328 412 L 326.5 412 L 325 412.5 L 325.5 410 Z " /><path fill="rgb(253,252,245)" stroke="rgb(253,252,245)" stroke-width="1" opacity="0.9450980392156862" d="M 360.5 411 L 361 415.5 L 360 415.5 L 360.5 411 Z " /><path fill="rgb(253,252,245)" stroke="rgb(253,252,245)" stroke-width="1" opacity="0.9450980392156862" d="M 334.5 413 L 334 414.5 Q 334.8 416.8 332.5 416 L 334.5 413 Z " /><path fill="rgb(253,252,245)" stroke="rgb(253,252,245)" stroke-width="1" opacity="0.9450980392156862" d="M 344.5 414 L 347 414.5 L 342.5 416 L 342.5 415 L 344.5 414 Z " /><path fill="rgb(253,252,245)" stroke="rgb(253,252,245)" stroke-width="1" opacity="0.9450980392156862" d="M 362.5 435 L 365 435.5 Q 362.9 438.8 362.5 435 Z " /><path fill="rgb(253,252,245)" stroke="rgb(253,252,245)" stroke-width="1" opacity="0.9450980392156862" d="M 944 448 L 948 449.5 L 947.5 451 L 945.5 450 L 945 452.5 L 944.5 454 L 943.5 452 L 945 451.5 L 944 448 Z " /><path fill="rgb(253,252,245)" stroke="rgb(253,252,245)" stroke-width="1" opacity="0.9450980392156862" d="M 368.5 459 L 370.5 460 L 372 459.5 L 370.5 463 L 369.5 460 L 368.5 459 Z " /><path fill="rgb(253,252,245)" stroke="rgb(253,252,245)" stroke-width="1" opacity="0.9450980392156862" d="M 372.5 462 L 373 463.5 L 372 466.5 L 374 466.5 L 373 470.5 L 374 470.5 L 374.5 469 L 376 472.5 L 375 472.5 L 374.5 471 L 372.5 472 L 369.5 470 L 369.5 472 Q 367 470.8 368 467 L 371 466.5 L 368 465.5 L 368 464 L 372 464 L 372.5 462 Z " /><path fill="rgb(253,252,245)" stroke="rgb(253,252,245)" stroke-width="1" opacity="0.9450980392156862" d="M 920.5 467 L 923 467.5 Q 920.9 470.8 920.5 467 Z " /><path fill="rgb(253,252,245)" stroke="rgb(253,252,245)" stroke-width="1" opacity="0.9450980392156862" d="M 751.5 471 L 755 473 L 754.5 475 L 751.5 471 Z " /><path fill="rgb(253,252,245)" stroke="rgb(253,252,245)" stroke-width="1" opacity="0.9450980392156862" d="M 996.5 474 L 999 475 L 998.5 477 L 996.5 474 Z " /><path fill="rgb(253,252,245)" stroke="rgb(253,252,245)" stroke-width="1" opacity="0.9450980392156862" d="M 757.5 477 L 760.5 481 L 757.5 477 Z " /><path fill="rgb(253,252,245)" stroke="rgb(253,252,245)" stroke-width="1" opacity="0.9450980392156862" d="M 378.5 480 L 379 481.5 L 378 483.5 L 380 483.5 L 379 486.5 L 381 486.5 Q 381.8 488.8 379.5 488 L 377.5 489 Q 374.8 487.8 377 486.5 Q 376.3 481.8 378.5 480 Z " /><path fill="rgb(253,252,245)" stroke="rgb(253,252,245)" stroke-width="1" opacity="0.9450980392156862" d="M 763.5 480 Q 766.5 481.5 763.5 483 L 763.5 480 Z " /><path fill="rgb(253,252,245)" stroke="rgb(253,252,245)" stroke-width="1" opacity="0.9450980392156862" d="M 848.5 480 L 850.5 480 L 852 480.5 L 851 482.5 L 851.5 484 L 850 483.5 L 849.5 485 L 848 484.5 L 849 486.5 L 847 485.5 L 848.5 480 Z " /><path fill="rgb(253,252,245)" stroke="rgb(253,252,245)" stroke-width="1" opacity="0.9450980392156862" d="M 84.5 482 L 86 485.5 L 84 486.5 L 84 484.5 L 84.5 482 Z " /><path fill="rgb(253,252,245)" stroke="rgb(253,252,245)" stroke-width="1" opacity="0.9450980392156862" d="M 975.5 482 L 976 483.5 L 974 487 L 971 485.5 L 975 483.5 L 975.5 482 Z " /><path fill="rgb(253,252,245)" stroke="rgb(253,252,245)" stroke-width="1" opacity="0.9450980392156862" d="M 777.5 488 L 781 489.5 L 779 490.5 L 778.5 489 L 776.5 490 L 777.5 488 Z " /><path fill="rgb(253,252,245)" stroke="rgb(253,252,245)" stroke-width="1" opacity="0.9450980392156862" d="M 377.5 490 L 378.5 492 L 376 491.5 L 377.5 490 Z " /><path fill="rgb(253,252,245)" stroke="rgb(253,252,245)" stroke-width="1" opacity="0.9450980392156862" d="M 786.5 490 L 789 491.5 L 786.5 493 L 786.5 490 Z " /><path fill="rgb(253,252,245)" stroke="rgb(253,252,245)" stroke-width="1" opacity="0.9450980392156862" d="M 799.5 491 Q 802.1 490.3 801 493 L 796 492.5 L 799.5 491 Z " /><path fill="rgb(253,252,245)" stroke="rgb(253,252,245)" stroke-width="1" opacity="0.9450980392156862" d="M 815.5 491 L 817 491.5 Q 816.3 493.8 812.5 493 L 812.5 492 L 815.5 491 Z " /><path fill="rgb(253,252,245)" stroke="rgb(253,252,245)" stroke-width="1" opacity="0.9450980392156862" d="M 380.5 492 L 383 492.5 L 382 496 L 379 495.5 Q 382.1 493.7 380.5 492 Z " /><path fill="rgb(253,252,245)" stroke="rgb(253,252,245)" stroke-width="1" opacity="0.9450980392156862" d="M 85.5 493 L 87 495.5 L 85 496.5 L 86 494.5 L 84 494.5 L 85.5 493 Z " /><path fill="rgb(253,252,245)" stroke="rgb(253,252,245)" stroke-width="1" opacity="0.9450980392156862" d="M 819.5 493 L 824 493.5 L 819.5 494 L 819.5 493 Z " /><path fill="rgb(253,252,245)" stroke="rgb(253,252,245)" stroke-width="1" opacity="0.9450980392156862" d="M 802.5 494 L 811 494.5 L 802.5 495 L 802.5 494 Z " /><path fill="rgb(253,252,245)" stroke="rgb(253,252,245)" stroke-width="1" opacity="0.9450980392156862" d="M 84.5 499 L 86 501.5 L 84 502.5 L 84 500.5 L 84.5 499 Z " /><path fill="rgb(253,252,245)" stroke="rgb(253,252,245)" stroke-width="1" opacity="0.9450980392156862" d="M 384 506 Q 386.7 504.9 386 507.5 L 388 507.5 L 387 510 L 389 510.5 L 384.5 514 L 384 512.5 Q 387.5 511 385 509.5 L 384 506 Z " /><path fill="rgb(253,252,245)" stroke="rgb(253,252,245)" stroke-width="1" opacity="0.9450980392156862" d="M 1012.5 513 L 1014.5 514 L 1016 513.5 L 1014.5 516 L 1012 515.5 L 1012.5 513 Z " /><path fill="rgb(253,252,245)" stroke="rgb(253,252,245)" stroke-width="1" opacity="0.9450980392156862" d="M 390.5 515 L 391 516.5 L 389.5 520 L 388 518.5 L 388.5 516 L 390 516.5 L 390.5 515 Z " /><path fill="rgb(253,252,245)" stroke="rgb(253,252,245)" stroke-width="1" opacity="0.9450980392156862" d="M 85.5 517 L 86.5 519 L 84 518.5 L 85.5 517 Z " /><path fill="rgb(253,252,245)" stroke="rgb(253,252,245)" stroke-width="1" opacity="0.9450980392156862" d="M 391.5 518 L 393 521.5 L 392 521.5 L 391.5 518 Z " /><path fill="rgb(253,252,245)" stroke="rgb(253,252,245)" stroke-width="1" opacity="0.9450980392156862" d="M 1043.5 525 L 1046 525.5 Q 1043.9 528.8 1043.5 525 Z " /><path fill="rgb(253,252,245)" stroke="rgb(253,252,245)" stroke-width="1" opacity="0.9450980392156862" d="M 394.5 526 L 395 527.5 L 394 530.5 L 395 530.5 L 395.5 529 L 396 530.5 L 395 533 L 392 531.5 L 394.5 526 Z " /><path fill="rgb(253,252,245)" stroke="rgb(253,252,245)" stroke-width="1" opacity="0.9450980392156862" d="M 396.5 532 L 397 533.5 L 396 536.5 L 397 536.5 L 397.5 535 L 398 536.5 Q 396.5 539.5 395 536.5 L 394.5 535 L 392.5 538 L 392 535 L 396 534 L 396.5 532 Z " /><path fill="rgb(253,252,245)" stroke="rgb(253,252,245)" stroke-width="1" opacity="0.9450980392156862" d="M 398.5 538 L 399 539.5 L 398 542.5 L 399 542.5 L 399.5 541 L 401 544.5 L 400 544.5 L 399.5 543 L 397 544 L 398.5 538 Z " /><path fill="rgb(253,252,245)" stroke="rgb(253,252,245)" stroke-width="1" opacity="0.9450980392156862" d="M 1042.5 545 L 1043 547.5 L 1042.5 549 Q 1044.8 549.8 1044 547.5 L 1045.5 545 L 1046 546.5 L 1045 548.5 L 1048 552.5 L 1045.5 551 L 1043 552.5 L 1044 550 Q 1040.3 551.5 1041 548.5 L 1040.5 547 L 1042 547.5 L 1042.5 545 Z " /><path fill="rgb(253,252,245)" stroke="rgb(253,252,245)" stroke-width="1" opacity="0.9450980392156862" d="M 401.5 546 L 402 547.5 L 400.5 550 L 400 548.5 L 401.5 546 Z " /><path fill="rgb(253,252,245)" stroke="rgb(253,252,245)" stroke-width="1" opacity="0.9450980392156862" d="M 401.5 551 L 402.5 553 L 404 552.5 L 403 555 Q 405.7 553.9 405 556.5 L 406 558.5 L 404.5 561 L 402 558.5 L 402 556.5 L 401.5 555 L 400.5 559 L 400 554.5 L 401.5 551 Z " /><path fill="rgb(253,252,245)" stroke="rgb(253,252,245)" stroke-width="1" opacity="0.9450980392156862" d="M 1040.5 552 L 1041 553.5 L 1040.5 555 L 1042.5 554 L 1043.5 557 L 1045.5 553 L 1046 554.5 L 1045 556.5 L 1046 558.5 L 1043.5 560 L 1040 558.5 L 1039 554.5 L 1040.5 552 Z " /><path fill="rgb(253,252,245)" stroke="rgb(253,252,245)" stroke-width="1" opacity="0.9450980392156862" d="M 1043.5 561 Q 1047.3 560.3 1048 562.5 L 1047 563.5 L 1050 566.5 L 1051 569.5 L 1051 571.5 L 1052.5 574 L 1054 573.5 L 1053 575.5 L 1054 577.5 L 1053.5 579 L 1057 578.5 L 1056.5 577 L 1059 577.5 L 1058.5 580 L 1057 580.5 L 1058.5 585 L 1060 584.5 L 1059 587.5 L 1060.5 590 L 1062 589.5 L 1058 594.5 L 1059 597 L 1057 597.5 L 1058 600 L 1056 600.5 L 1056 602.5 L 1055 606.5 L 1057 607.5 L 1054 608.5 L 1054.5 612 L 1053 612 Q 1054.5 615.8 1051.5 615 L 1050 618.5 L 1051.5 622 L 1053 622.5 L 1052.5 624 L 1054.5 623 L 1052.5 626 L 1045 624 L 1049 607.5 L 1049 591.5 L 1045 573.5 L 1041 565.5 L 1043 566.5 L 1047 573.5 L 1049.5 583 L 1051 580.5 L 1050 578 L 1053 576.5 L 1051.5 576 L 1050 576.5 L 1051 573.5 L 1046 565.5 Q 1048.3 564.3 1045.5 563 L 1043.5 561 Z M 1053 582 L 1051 586 L 1053 585 L 1053 582 Z " /><path fill="rgb(253,252,245)" stroke="rgb(253,252,245)" stroke-width="1" opacity="0.9450980392156862" d="M 407.5 563 L 409 566.5 L 408 566.5 L 407.5 565 Q 406.3 567.3 405 564.5 L 407.5 563 Z " /><path fill="rgb(253,252,245)" stroke="rgb(253,252,245)" stroke-width="1" opacity="0.9450980392156862" d="M 409.5 568 L 411 571.5 L 408.5 575 L 408 573.5 L 410 570.5 L 408 570.5 L 409.5 568 Z " /><path fill="rgb(253,252,245)" stroke="rgb(253,252,245)" stroke-width="1" opacity="0.9450980392156862" d="M 411.5 573 L 412 574.5 L 411 577 L 408.5 578 L 408 576 L 411 574.5 L 411.5 573 Z " /><path fill="rgb(253,252,245)" stroke="rgb(253,252,245)" stroke-width="1" opacity="0.9450980392156862" d="M 410.5 579 L 413.5 583 L 414.5 581 L 415 582.5 Q 413 586 411 581.5 L 410.5 579 Z " /><path fill="rgb(253,252,245)" stroke="rgb(253,252,245)" stroke-width="1" opacity="0.9450980392156862" d="M 416.5 592 L 419 592.5 L 418 594.5 L 420 595.5 L 419 598.5 L 420 598.5 L 420.5 597 L 421 598.5 Q 419.8 601.3 418.5 599 Q 416.3 599.8 417 597.5 Q 414.6 596.1 416.5 592 Z " /><path fill="rgb(253,252,245)" stroke="rgb(253,252,245)" stroke-width="1" opacity="0.9450980392156862" d="M 422.5 602 L 422 603.5 L 423 607.5 L 421 606.5 L 420.5 604 Q 419.3 606.3 418 603.5 L 420.5 603 L 422.5 602 Z " /><path fill="rgb(253,252,245)" stroke="rgb(253,252,245)" stroke-width="1" opacity="0.9450980392156862" d="M 423.5 610 L 426 610.5 L 424.5 614 L 423.5 610 Z " /><path fill="rgb(253,252,245)" stroke="rgb(253,252,245)" stroke-width="1" opacity="0.9450980392156862" d="M 427.5 614 L 428 615.5 L 427 617.5 L 429 617.5 L 428 619.5 L 430 619.5 L 429 622 Q 431.7 620.9 431 623.5 L 431.5 625 L 428 624 L 425.5 620 L 424 619.5 L 425.5 616 Q 428 616.7 427.5 614 Z " /><path fill="rgb(253,252,245)" stroke="rgb(253,252,245)" stroke-width="1" opacity="0.9450980392156862" d="M 1056.5 623 L 1066.5 627 L 1069 625.5 Q 1066.8 626.8 1069.5 628 L 1072 627 Q 1073.3 630 1069.5 629 L 1067.5 630 L 1068 628.5 L 1067.5 627 L 1063.5 629 L 1063.5 627 L 1059.5 625 L 1057.5 625 Q 1054.7 625.7 1056.5 623 Z " /><path fill="rgb(253,252,245)" stroke="rgb(253,252,245)" stroke-width="1" opacity="0.9450980392156862" d="M 1088.5 631 L 1090.5 634 Q 1088.3 634.8 1089 632.5 L 1088.5 631 Z " /><path fill="rgb(253,252,245)" stroke="rgb(253,252,245)" stroke-width="1" opacity="0.9450980392156862" d="M 1094.5 631 L 1096 633.5 L 1095 637 L 1093 636.5 L 1093.5 635 L 1092 634.5 L 1095 633.5 L 1093 632.5 L 1094.5 631 Z " /><path fill="rgb(253,252,245)" stroke="rgb(253,252,245)" stroke-width="1" opacity="0.9450980392156862" d="M 432 632 Q 434.7 630.9 434 633.5 L 436 637 L 438 637.5 L 437 640 L 434 639.5 L 436 638.5 Q 434.5 635.5 433 638.5 L 432.5 640 L 432 638.5 L 432 636.5 L 432 632 Z " /><path fill="rgb(253,252,245)" stroke="rgb(253,252,245)" stroke-width="1" opacity="0.9450980392156862" d="M 535.5 633 L 546 642.5 L 541.5 639 L 540.5 640 Q 538.3 635.7 536 637.5 L 537 635.5 L 534 634.5 L 535.5 633 Z " /><path fill="rgb(253,252,245)" stroke="rgb(253,252,245)" stroke-width="1" opacity="0.9450980392156862" d="M 1098.5 635 L 1102 637.5 L 1100 638.5 L 1100.5 637 L 1098.5 635 Z " /><path fill="rgb(253,252,245)" stroke="rgb(253,252,245)" stroke-width="1" opacity="0.9450980392156862" d="M 533.5 636 Q 536.3 637.3 534 638.5 L 536 641.5 L 533 641.5 L 533.5 640 L 531 638.5 L 533.5 636 Z " /><path fill="rgb(253,252,245)" stroke="rgb(253,252,245)" stroke-width="1" opacity="0.9450980392156862" d="M 439.5 641 L 442 645.5 L 441 645.5 L 439.5 641 Z " /><path fill="rgb(253,252,245)" stroke="rgb(253,252,245)" stroke-width="1" opacity="0.9450980392156862" d="M 529.5 641 L 524.5 647 L 529.5 641 Z " /><path fill="rgb(253,252,245)" stroke="rgb(253,252,245)" stroke-width="1" opacity="0.9450980392156862" d="M 545.5 644 L 551 648.5 L 549 649.5 L 549.5 648 L 546.5 647 Q 545.3 649.3 544 646.5 L 545.5 644 Z " /><path fill="rgb(253,252,245)" stroke="rgb(253,252,245)" stroke-width="1" opacity="0.9450980392156862" d="M 440.5 647 L 442.5 650 L 444 649.5 L 443.5 651 L 445 651.5 L 444.5 653 L 446 653.5 L 445.5 655 L 448 656.5 L 446.5 656 Q 443.2 657.1 444 654.5 L 443 654.5 L 442.5 656 L 442 654.5 L 442 652.5 L 441.5 650 L 440.5 652 L 440.5 647 Z " /><path fill="rgb(253,252,245)" stroke="rgb(253,252,245)" stroke-width="1" opacity="0.9450980392156862" d="M 525.5 650 L 524 652.5 L 523.5 654 L 523 651 L 525.5 650 Z " /><path fill="rgb(253,252,245)" stroke="rgb(253,252,245)" stroke-width="1" opacity="0.9450980392156862" d="M 1153.5 650 L 1155 650.5 L 1151.5 652 L 1151.5 651 L 1153.5 650 Z " /><path fill="rgb(253,252,245)" stroke="rgb(253,252,245)" stroke-width="1" opacity="0.9450980392156862" d="M 552 651 L 559 656.5 L 557 657.5 L 557.5 656 L 554 656 L 554 653 Q 551 654 552 651 Z " /><path fill="rgb(253,252,245)" stroke="rgb(253,252,245)" stroke-width="1" opacity="0.9450980392156862" d="M 1189 657 Q 1192.7 655.5 1192 658.5 Q 1189.5 660 1193 661.5 L 1193.5 663 L 1195 662.5 L 1192 664 L 1192 661.5 L 1189 657 Z " /><path fill="rgb(253,252,245)" stroke="rgb(253,252,245)" stroke-width="1" opacity="0.9450980392156862" d="M 559.5 658 L 561.5 658 L 570 666.5 L 569.5 668 L 571 668 L 571 670 Q 573.7 668.9 573 671.5 L 570.5 672 L 569 671.5 L 570 669.5 L 568 669.5 L 569 666.5 L 565.5 663 L 563.5 664 L 561.5 663 L 560 663.5 L 560.5 660 Q 557.7 660.7 559.5 658 Z " /><path fill="rgb(253,252,245)" stroke="rgb(253,252,245)" stroke-width="1" opacity="0.9450980392156862" d="M 1186.5 658 L 1187 660 L 1190 661.5 L 1189.5 663 L 1189 661 L 1184 659.5 L 1186.5 658 Z " /><path fill="rgb(253,252,245)" stroke="rgb(253,252,245)" stroke-width="1" opacity="0.9450980392156862" d="M 84.5 660 Q 87.5 661.5 84.5 663 L 84.5 660 Z " /><path fill="rgb(253,252,245)" stroke="rgb(253,252,245)" stroke-width="1" opacity="0.9450980392156862" d="M 448.5 664 L 450.5 665 L 452 664.5 L 451.5 666 L 453 666.5 L 452 668.5 L 454 668.5 L 453.5 670 L 456 671.5 L 451.5 672 L 449.5 671 L 448 671.5 L 449 669.5 L 448 666.5 L 448.5 664 Z " /><path fill="rgb(253,252,245)" stroke="rgb(253,252,245)" stroke-width="1" opacity="0.9450980392156862" d="M 1204.5 664 L 1208 666.5 L 1206.5 666 Q 1202.5 667 1204.5 664 Z " /><path fill="rgb(253,252,245)" stroke="rgb(253,252,245)" stroke-width="1" opacity="0.9450980392156862" d="M 1212.5 667 Q 1215.5 668.5 1212.5 670 L 1211 669.5 L 1213 668.5 L 1212.5 667 Z " /><path fill="rgb(253,252,245)" stroke="rgb(253,252,245)" stroke-width="1" opacity="0.9450980392156862" d="M 84.5 668 Q 87.5 669.5 84.5 671 L 84.5 668 Z " /><path fill="rgb(253,252,245)" stroke="rgb(253,252,245)" stroke-width="1" opacity="0.9450980392156862" d="M 575.5 671 L 579 674.5 L 578 675.5 L 578.5 677 L 580 676.5 L 577.5 678 L 576 676.5 L 577 673.5 L 575.5 671 Z " /><path fill="rgb(253,252,245)" stroke="rgb(253,252,245)" stroke-width="1" opacity="0.9450980392156862" d="M 532.5 674 L 533.5 676 L 534.5 674 L 535 675.5 L 533.5 677 L 531 676.5 L 532.5 674 Z " /><path fill="rgb(253,252,245)" stroke="rgb(253,252,245)" stroke-width="1" opacity="0.9450980392156862" d="M 581.5 676 Q 586 678 582.5 680 L 581.5 676 Z " /><path fill="rgb(253,252,245)" stroke="rgb(253,252,245)" stroke-width="1" opacity="0.9450980392156862" d="M 534.5 678 L 535.5 680 L 533 679.5 L 534.5 678 Z " /><path fill="rgb(253,252,245)" stroke="rgb(253,252,245)" stroke-width="1" opacity="0.9450980392156862" d="M 585.5 680 L 589 682.5 L 587.5 686 L 584 685.5 L 584.5 683 L 588 682.5 Q 586.8 679.8 585.5 682 L 584 681.5 L 585.5 680 Z " /><path fill="rgb(253,252,245)" stroke="rgb(253,252,245)" stroke-width="1" opacity="0.9450980392156862" d="M 1270.5 682 L 1272 685.5 L 1270 686.5 L 1270.5 685 L 1269 684.5 L 1270.5 682 Z " /><path fill="rgb(253,252,245)" stroke="rgb(253,252,245)" stroke-width="1" opacity="0.9450980392156862" d="M 591.5 684 L 592.5 686 L 590 685.5 L 591.5 684 Z " /><path fill="rgb(253,252,245)" stroke="rgb(253,252,245)" stroke-width="1" opacity="0.9450980392156862" d="M 539.5 685 Q 541.8 684.3 541 686.5 L 540 687.5 L 542.5 691 L 538 686.5 L 539.5 685 Z " /><path fill="rgb(253,252,245)" stroke="rgb(253,252,245)" stroke-width="1" opacity="0.9450980392156862" d="M 599.5 690 L 600.5 693 L 602.5 692 L 605 695.5 L 603.5 695 L 601.5 696 L 598 691.5 L 599.5 690 Z " /><path fill="rgb(253,252,245)" stroke="rgb(253,252,245)" stroke-width="1" opacity="0.9450980392156862" d="M 464 691 L 468 692.5 L 467.5 694 L 469 694.5 L 464.5 697 L 466 694.5 L 465.5 693 L 464 693.5 L 464 691 Z " /><path fill="rgb(253,252,245)" stroke="rgb(253,252,245)" stroke-width="1" opacity="0.9450980392156862" d="M 469.5 696 Q 472.3 697.3 470 698.5 L 470.5 700 Q 471.8 697.7 473 700.5 Q 471.3 698.9 469.5 702 Q 466.1 702.9 468 697.5 L 469.5 696 Z " /><path fill="rgb(253,252,245)" stroke="rgb(253,252,245)" stroke-width="1" opacity="0.9450980392156862" d="M 608.5 696 L 609.5 699 L 611.5 698 L 613 701 L 610.5 700 L 608.5 703 L 608 698.5 L 608.5 696 Z " /><path fill="rgb(253,252,245)" stroke="rgb(253,252,245)" stroke-width="1" opacity="0.9450980392156862" d="M 1297.5 696 L 1299 697.5 L 1298.5 700 L 1297 698.5 L 1297.5 696 Z " /><path fill="rgb(253,252,245)" stroke="rgb(253,252,245)" stroke-width="1" opacity="0.9450980392156862" d="M 549.5 697 L 552.5 701 L 549.5 697 Z " /><path fill="rgb(253,252,245)" stroke="rgb(253,252,245)" stroke-width="1" opacity="0.9450980392156862" d="M 554.5 699 L 557 699.5 Q 554.5 701 558 702.5 Q 558.8 704.8 556.5 704 L 554.5 699 Z " /><path fill="rgb(253,252,245)" stroke="rgb(253,252,245)" stroke-width="1" opacity="0.9450980392156862" d="M 1301.5 700 L 1302.5 704 Q 1298 702 1301.5 700 Z " /><path fill="rgb(253,252,245)" stroke="rgb(253,252,245)" stroke-width="1" opacity="0.9450980392156862" d="M 473.5 702 Q 476.3 703.2 474 704.5 L 474.5 706 Q 475.8 703.7 477 706.5 L 476.5 708 L 479 709.5 L 478.5 711 L 482 713.5 L 481.5 715 L 485 717.5 L 484.5 720 L 482 719.5 Q 482.8 716.9 479.5 718 L 479.5 717 L 481 716.5 L 480 714.5 Q 482.3 713.3 479.5 712 L 475 711.5 Q 477.3 710.2 474.5 709 L 473 709.5 L 473.5 711 L 472 707.5 L 474 707.5 Q 474.8 705.3 472.5 706 L 473.5 702 Z " /><path fill="rgb(253,252,245)" stroke="rgb(253,252,245)" stroke-width="1" opacity="0.9450980392156862" d="M 559.5 704 L 562 704.5 Q 559.9 707.8 559.5 704 Z " /><path fill="rgb(253,252,245)" stroke="rgb(253,252,245)" stroke-width="1" opacity="0.9450980392156862" d="M 624.5 707 L 627 707.5 L 626.5 709 L 628.5 708 L 627.5 710 L 624 709 L 624.5 707 Z " /><path fill="rgb(253,252,245)" stroke="rgb(253,252,245)" stroke-width="1" opacity="0.9450980392156862" d="M 630.5 709 L 630.5 712 L 628 711.5 L 630.5 709 Z " /><path fill="rgb(253,252,245)" stroke="rgb(253,252,245)" stroke-width="1" opacity="0.9450980392156862" d="M 636.5 712 L 637.5 715 L 639.5 716 L 640.5 714 L 641.5 716 L 643 715.5 L 642.5 717 L 644.5 716 L 644 717.5 Q 645.3 721.3 641.5 720 L 642 718.5 L 641.5 717 L 637.5 717 Q 634.9 717.8 636 714.5 L 636.5 712 Z " /><path fill="rgb(253,252,245)" stroke="rgb(253,252,245)" stroke-width="1" opacity="0.9450980392156862" d="M 646.5 717 L 646.5 720 Q 643.5 718.5 646.5 717 Z " /><path fill="rgb(253,252,245)" stroke="rgb(253,252,245)" stroke-width="1" opacity="0.9450980392156862" d="M 1302.5 718 Q 1305.5 719.5 1302.5 721 L 1302.5 718 Z " /><path fill="rgb(253,252,245)" stroke="rgb(253,252,245)" stroke-width="1" opacity="0.9450980392156862" d="M 486.5 720 L 503 736.5 L 501.5 738 L 501.5 736 Q 499.3 736.8 500 734.5 L 497 735.5 L 498 732.5 L 495.5 730 L 495 731.5 L 496 734 L 492.5 735 L 492.5 734 Q 495.5 734.9 494 730.5 L 494 728.5 L 486.5 720 Z " /><path fill="rgb(253,252,245)" stroke="rgb(253,252,245)" stroke-width="1" opacity="0.9450980392156862" d="M 591.5 721 L 594 721.5 Q 591.9 724.8 591.5 721 Z " /><path fill="rgb(253,252,245)" stroke="rgb(253,252,245)" stroke-width="1" opacity="0.9450980392156862" d="M 655.5 721 L 657 721.5 L 656.5 723 L 660 722 L 660.5 724 L 662 723.5 L 660.5 725 L 658 723.5 L 659 725.5 L 655 726 L 654.5 724 L 652 725.5 L 655.5 721 Z " /><path fill="rgb(253,252,245)" stroke="rgb(253,252,245)" stroke-width="1" opacity="0.9450980392156862" d="M 1299.5 721 L 1297.5 724 L 1299.5 721 Z " /><path fill="rgb(253,252,245)" stroke="rgb(253,252,245)" stroke-width="1" opacity="0.9450980392156862" d="M 1140 724 L 1216 724.5 L 1204 725.5 L 1224 726.5 Q 1222.8 729.3 1221.5 727 L 1217.5 728 L 1215.5 728 L 1213.5 727 L 1210.5 728 L 1204.5 728 L 1202.5 727 L 1200.5 728 L 1197.5 727 L 1195.5 726 L 1190.5 728 L 1187.5 727 L 1184 727.5 Q 1184.8 725.3 1182.5 726 L 1181 725.5 L 1180.5 728 L 1176.5 725 L 1176 727 L 1165.5 725 L 1162.5 727 L 1158.5 725 L 1159 726.5 L 1158.5 728 L 1156.5 728 L 1152 728 Q 1153.8 723.1 1147.5 725 L 1147.5 726 L 1149 726.5 L 1147.5 727 L 1145.5 726 L 1139.5 728 L 1137.5 728 L 1135.5 727 L 1132.5 728 L 1130.5 727 L 1128.5 728 L 1126.5 728 L 1113 727.5 L 1113.5 726 L 1104 725.5 L 1117.5 725 L 1119.5 726 Q 1120.8 723.7 1125.5 725 L 1127.5 726 L 1131.5 725 L 1132.5 726 L 1140 726 L 1140 724 Z " /><path fill="rgb(253,252,245)" stroke="rgb(253,252,245)" stroke-width="1" opacity="0.9450980392156862" d="M 1226.5 725 L 1228.5 726 L 1230 725.5 L 1227.5 727 L 1226.5 725 Z " /><path fill="rgb(253,252,245)" stroke="rgb(253,252,245)" stroke-width="1" opacity="0.9450980392156862" d="M 1231.5 725 L 1240 725.5 L 1231.5 726 L 1231.5 725 Z " /><path fill="rgb(253,252,245)" stroke="rgb(253,252,245)" stroke-width="1" opacity="0.9450980392156862" d="M 1075 726 L 1085.5 726 L 1087.5 728 L 1088.5 726 L 1093.5 728 L 1096.5 727 L 1109 727.5 L 1096 728 L 1095.5 730 L 1094.5 728 L 1091.5 732 L 1090 731.5 Q 1092.3 730.3 1089.5 729 L 1086.5 728 L 1084 729 Q 1085.3 725.3 1079.5 727 L 1076.5 728 L 1071.5 730 L 1069.5 730 L 1065.5 729 L 1063 730 L 1062.5 728 L 1061.5 730 L 1061 728 L 1052 727.5 L 1070.5 727 L 1075 728 L 1075 726 Z " /><path fill="rgb(253,252,245)" stroke="rgb(253,252,245)" stroke-width="1" opacity="0.9450980392156862" d="M 1251.5 726 L 1261 726.5 L 1251.5 727 L 1251.5 726 Z " /><path fill="rgb(253,252,245)" stroke="rgb(253,252,245)" stroke-width="1" opacity="0.9450980392156862" d="M 671.5 727 Q 673.8 726.3 673 728.5 L 674.5 728 L 676 728.5 L 672 730 L 671.5 727 Z " /><path fill="rgb(253,252,245)" stroke="rgb(253,252,245)" stroke-width="1" opacity="0.9450980392156862" d="M 1266.5 727 L 1275 727.5 L 1266.5 728 L 1266.5 727 Z " /><path fill="rgb(253,252,245)" stroke="rgb(253,252,245)" stroke-width="1" opacity="0.9450980392156862" d="M 1028.5 728 L 1043.5 728 L 1044.5 729 L 1047.5 728 Q 1049.8 727.3 1049 729.5 L 1045 732.5 L 1045 734.5 L 1044.5 736 L 1041.5 731 L 1038 731.5 L 1038.5 730 L 1034.5 732 L 1033.5 729 Q 1027.5 730.3 1028.5 728 Z " /><path fill="rgb(253,252,245)" stroke="rgb(253,252,245)" stroke-width="1" opacity="0.9450980392156862" d="M 1278 728 L 1282 728.5 L 1278 730 L 1278 728 Z " /><path fill="rgb(253,252,245)" stroke="rgb(253,252,245)" stroke-width="1" opacity="0.9450980392156862" d="M 1005.5 729 L 1017 729 L 1017 733.5 L 1014.5 732 L 1005.5 732 L 1004.5 733 L 1002.5 732 L 996 733.5 L 998 736.5 L 994 735.5 L 995 734.5 Q 991.9 732.8 993.5 731 L 987 730.5 L 996.5 730 L 1001.5 732 L 1002.5 731 L 1012 730.5 L 1005.5 730 L 1005.5 729 Z " /><path fill="rgb(253,252,245)" stroke="rgb(253,252,245)" stroke-width="1" opacity="0.9450980392156862" d="M 681.5 730 L 683 730.5 L 681 731.5 L 683 732.5 L 679.5 734 L 678 731.5 Q 679.8 733.1 681.5 730 Z " /><path fill="rgb(253,252,245)" stroke="rgb(253,252,245)" stroke-width="1" opacity="0.9450980392156862" d="M 1018 730 L 1023 730.5 L 1018.5 732 L 1018 730 Z " /><path fill="rgb(253,252,245)" stroke="rgb(253,252,245)" stroke-width="1" opacity="0.9450980392156862" d="M 975.5 731 L 992 732 L 990.5 735 L 990 733 L 975.5 732 L 975.5 731 Z " /><path fill="rgb(253,252,245)" stroke="rgb(253,252,245)" stroke-width="1" opacity="0.9450980392156862" d="M 84.5 732 Q 87.5 733.5 84.5 735 Q 81.5 733.5 84.5 732 Z " /><path fill="rgb(253,252,245)" stroke="rgb(253,252,245)" stroke-width="1" opacity="0.9450980392156862" d="M 962 732 L 966 732 L 966 733.5 L 968.5 732 L 969.5 733 L 980 733.5 L 973 734 L 972.5 736 L 970.5 735 L 966.5 735 L 963.5 736 L 961.5 736 L 950 736.5 L 950.5 738 Q 948.3 738.8 949 736.5 L 947.5 737 L 945.5 736 L 942.5 738 L 941.5 736 L 943.5 736 L 945 735.5 L 941 734.5 L 944.5 734 L 949.5 736 L 955 734.5 L 952 733.5 L 956.5 733 L 959.5 735 L 962 734 L 962 732 Z " /><path fill="rgb(253,252,245)" stroke="rgb(253,252,245)" stroke-width="1" opacity="0.9450980392156862" d="M 932.5 735 L 940 736.5 L 937.5 737 L 936 736.5 Q 936.8 739.1 933.5 738 L 932 738.5 L 933 736.5 L 932.5 735 Z " /><path fill="rgb(253,252,245)" stroke="rgb(253,252,245)" stroke-width="1" opacity="0.9450980392156862" d="M 704.5 736 L 707 736.5 L 704 737.5 L 704.5 739 Q 701.5 737.5 704.5 736 Z " /><path fill="rgb(253,252,245)" stroke="rgb(253,252,245)" stroke-width="1" opacity="0.9450980392156862" d="M 924.5 736 Q 929.8 734.8 931 737.5 L 928 738.5 Q 930.3 739.8 927.5 741 L 925.5 738 L 924 738.5 L 924.5 736 Z " /><path fill="rgb(253,252,245)" stroke="rgb(253,252,245)" stroke-width="1" opacity="0.9450980392156862" d="M 913.5 737 Q 919 736.5 921 739.5 L 919.5 740 L 917.5 739 L 916 739.5 L 916.5 738 Q 912.5 738.8 913.5 737 Z " /><path fill="rgb(253,252,245)" stroke="rgb(253,252,245)" stroke-width="1" opacity="0.9450980392156862" d="M 715.5 738 L 717 738.5 L 714 740.5 L 715 742.5 L 712.5 744 L 712.5 739 L 715.5 738 Z " /><path fill="rgb(253,252,245)" stroke="rgb(253,252,245)" stroke-width="1" opacity="0.9450980392156862" d="M 504.5 739 L 506.5 740 L 508 739.5 L 507.5 741 L 509.5 742 L 511 741.5 L 510.5 744 Q 509 741 504 741.5 L 504.5 739 Z " /><path fill="rgb(253,252,245)" stroke="rgb(253,252,245)" stroke-width="1" opacity="0.9450980392156862" d="M 720 739 L 724 739.5 L 721 740.5 L 726.5 741 L 731.5 740 L 731.5 741 L 728 741 Q 729.5 744.8 726.5 744 L 724.5 744 L 720 741.5 L 720 739 Z " /><path fill="rgb(253,252,245)" stroke="rgb(253,252,245)" stroke-width="1" opacity="0.9450980392156862" d="M 910.5 739 L 915 739.5 L 904.5 742 L 902.5 741 Q 901.3 743.3 900 740.5 L 909.5 740 L 910.5 739 Z " /><path fill="rgb(253,252,245)" stroke="rgb(253,252,245)" stroke-width="1" opacity="0.9450980392156862" d="M 595.5 740 L 597 743.5 L 596 743.5 L 595.5 740 Z " /><path fill="rgb(253,252,245)" stroke="rgb(253,252,245)" stroke-width="1" opacity="0.9450980392156862" d="M 886.5 740 L 894.5 742 L 896 741.5 L 895 744 L 889.5 743 L 888 743.5 L 889 741.5 Q 885.7 741.6 886.5 740 Z " /><path fill="rgb(253,252,245)" stroke="rgb(253,252,245)" stroke-width="1" opacity="0.9450980392156862" d="M 876.5 741 L 881 741.5 L 879 742.5 L 881 743.5 L 879.5 744 L 877.5 744 L 869.5 745 L 870.5 743 L 878 742.5 L 876.5 741 Z " /><path fill="rgb(253,252,245)" stroke="rgb(253,252,245)" stroke-width="1" opacity="0.9450980392156862" d="M 729.5 742 L 734 742.5 L 730.5 744 L 729.5 742 Z " /><path fill="rgb(253,252,245)" stroke="rgb(253,252,245)" stroke-width="1" opacity="0.9450980392156862" d="M 744.5 742 L 748.5 742 Q 747.5 745.3 753.5 744 Q 755.2 741.3 761.5 743 L 762.5 744 L 775 744.5 L 770.5 746 Q 769.3 743.8 768 746.5 L 769 749.5 L 768 749.5 L 767.5 747 L 766 747.5 L 766.5 746 L 763.5 745 L 761.5 746 L 759 744.5 Q 759.8 747.1 756.5 746 L 756.5 744 L 754 744.5 L 754.5 746 L 750.5 745 L 748.5 745 L 746.5 744 L 744 745.5 L 745 743.5 L 744.5 742 Z " /><path fill="rgb(253,252,245)" stroke="rgb(253,252,245)" stroke-width="1" opacity="0.9450980392156862" d="M 864.5 742 L 869 742.5 L 864.5 743 L 864.5 742 Z " /><path fill="rgb(253,252,245)" stroke="rgb(253,252,245)" stroke-width="1" opacity="0.9450980392156862" d="M 882 742 L 887 742 L 887 743.5 L 885.5 743 L 882 744 L 882 742 Z " /><path fill="rgb(253,252,245)" stroke="rgb(253,252,245)" stroke-width="1" opacity="0.9450980392156862" d="M 737.5 743 L 743 743.5 L 737.5 744 L 737.5 743 Z " /><path fill="rgb(253,252,245)" stroke="rgb(253,252,245)" stroke-width="1" opacity="0.9450980392156862" d="M 852.5 743 L 860 743.5 L 855 744 L 856 746.5 L 854.5 746 Q 852.3 746.8 853 744.5 L 848 746.5 L 848.5 748 L 845.5 746 L 841.5 746 Q 838.5 745.2 840 749 L 838 749 Q 839.3 746 835.5 747 L 832.5 748 L 831 746.5 L 837 745.5 L 834 744.5 L 851.5 744 L 852.5 743 Z " /><path fill="rgb(253,252,245)" stroke="rgb(253,252,245)" stroke-width="1" opacity="0.9450980392156862" d="M 517.5 745 L 517.5 747 L 521 746 L 521.5 748 L 523.5 747 L 523.5 748 L 522 748.5 L 524.5 749 L 526 748.5 L 525.5 750 L 528.5 749 L 527.5 751 L 525.5 752 L 516 746.5 L 517.5 745 Z " /><path fill="rgb(253,252,245)" stroke="rgb(253,252,245)" stroke-width="1" opacity="0.9450980392156862" d="M 592.5 745 L 592.5 748 Q 589.5 746.5 592.5 745 Z " /><path fill="rgb(253,252,245)" stroke="rgb(253,252,245)" stroke-width="1" opacity="0.9450980392156862" d="M 783 745 L 824 745.5 L 816 746.5 Q 818.3 747.7 815.5 749 L 815 746 L 808 746.5 L 808.5 748 L 806 747.5 L 806.5 746 L 792 746.5 L 797 747.5 L 792 748.5 L 794 749.5 L 792.5 750 L 789.5 748 L 787.5 748 Q 782.1 748.9 780 746.5 L 781.5 746 L 783 746.5 L 783 745 Z " /><path fill="rgb(253,252,245)" stroke="rgb(253,252,245)" stroke-width="1" opacity="0.9450980392156862" d="M 798.5 747 L 801 747.5 L 799.5 750 L 798.5 747 Z " /><path fill="rgb(253,252,245)" stroke="rgb(253,252,245)" stroke-width="1" opacity="0.9450980392156862" d="M 515.5 749 L 520 751.5 L 518.5 752 L 515.5 749 Z " /><path fill="rgb(253,252,245)" stroke="rgb(253,252,245)" stroke-width="1" opacity="0.9450980392156862" d="M 538.5 752 Q 542.3 750.8 541 754.5 L 540 754.5 Q 540.8 752.3 538.5 753 L 538.5 752 Z " /><path fill="rgb(253,252,245)" stroke="rgb(253,252,245)" stroke-width="1" opacity="0.9450980392156862" d="M 578.5 752 L 582 753.5 L 580.5 754 L 578.5 752 Z " /><path fill="rgb(253,252,245)" stroke="rgb(253,252,245)" stroke-width="1" opacity="0.9450980392156862" d="M 544.5 753 L 548 753.5 L 547.5 755 L 549.5 756 Q 550.8 753.8 552 756.5 L 549.5 757 L 543.5 755 L 542 755.5 L 544.5 753 Z " /><path fill="rgb(253,252,245)" stroke="rgb(253,252,245)" stroke-width="1" opacity="0.9450980392156862" d="M 573.5 753 L 577 753.5 L 575.5 757 L 573.5 756 L 571 757.5 L 572 755 L 575 754.5 L 573.5 753 Z " /><path fill="rgb(253,252,245)" stroke="rgb(253,252,245)" stroke-width="1" opacity="0.9450980392156862" d="M 553.5 754 L 569.5 754 L 571 755.5 L 569.5 755 L 567 755.5 L 569 756.5 L 566 757 L 565.5 755 L 564.5 757 L 563.5 755 L 563 757 L 560.5 758 L 556 756.5 L 562 755.5 L 553.5 755 L 553.5 754 Z " /><path fill="rgb(253,252,245)" stroke="rgb(253,252,245)" stroke-width="1" opacity="0.9450980392156862" d="M 1043.5 781 L 1046 781.5 L 1047 783.5 L 1045.5 783 L 1043.5 781 Z " /><path fill="rgb(253,252,245)" stroke="rgb(253,252,245)" stroke-width="1" opacity="0.9450980392156862" d="M 998.5 819 L 999 822 L 995.5 823 L 996.5 821 Q 999 821.7 998.5 819 Z " /><path fill="rgb(253,252,245)" stroke="rgb(253,252,245)" stroke-width="1" opacity="0.9450980392156862" d="M 85.5 821 L 86.5 823 L 84 822.5 L 85.5 821 Z " /><path fill="rgb(253,252,245)" stroke="rgb(253,252,245)" stroke-width="1" opacity="0.9450980392156862" d="M 83.5 925 L 86 925.5 Q 83.9 928.8 83.5 925 Z " /></svg>