<svg width="1143" height="1376" version="1.1" xmlns="http://www.w3.org/2000/svg" desc="Created with imagetracer.js version 1.2.6" ><path fill="currentColor" stroke="currentColor" stroke-width="1" opacity="1" d="M 278.5 178 L 287.5 180 L 297 187.5 L 307 202.5 L 309 213 Q 317.5 213.8 322 219.5 Q 335.6 235.4 333 267.5 L 328 286.5 L 324 293.5 L 330 304.5 L 335 319.5 L 338 333.5 L 338 339.5 L 344 357.5 L 356 408.5 L 371 435.5 L 384 465.5 L 392.5 476 L 393 473.5 L 392 468.5 L 394.5 467 L 398 469.5 L 409 488 L 415.5 485 Q 420.6 489.9 422 498.5 L 422 515.5 L 423 516.5 L 424 531.5 L 434.5 550 L 436.5 549 L 443.5 556 L 445.5 556 L 464 546.5 Q 441.5 526 432 492.5 L 428 471.5 L 428 437.5 Q 425 434.5 426 427.5 L 429 418.5 L 429 410.5 L 433 397.5 Q 440.5 382 453.5 372 L 458 370 L 459 366.5 L 458 365.5 L 458 357.5 Q 461.2 347.7 468 341.5 L 468 336.5 Q 460.5 329 459 315.5 L 460 310 L 466.5 312 L 466 310.5 L 464 303.5 L 450 283.5 L 447 273.5 L 452.5 266 L 458.5 264 L 463.5 264 L 499.5 274 L 517.5 274 L 531.5 267 L 538.5 266 L 557 271 L 554 262.5 L 557.5 261 L 564.5 263 L 594 279 L 592 275.5 Q 593 273 597.5 274 L 622.5 284 Q 628.8 279.3 639.5 279 L 642.5 281 L 661.5 282 L 675.5 274 L 686.5 271 L 686 272.5 Q 685.2 275.1 688.5 274 L 697.5 271 L 714.5 270 L 715.5 271 L 722.5 271 L 732.5 273 L 765.5 287 Q 770.2 285.8 771.5 288 L 792.5 288 L 805.5 285 L 821.5 277 Q 823.8 277.8 823 281.5 L 822 282.5 L 822 289.5 L 821 290.5 L 820 303.5 L 816 325.5 Q 812.1 335.6 803.5 341 L 789.5 350 L 784 355.5 L 788 363.5 L 799 377.5 L 811 399.5 L 818 424.5 L 819 442.5 L 820 443.5 L 820 459.5 L 819 460.5 L 818 477.5 L 813 503.5 L 811 508.5 L 801 522.5 Q 847.3 533.7 879 559.5 L 877.5 560 Q 846.4 538.6 804.5 528 L 806 530.5 L 826 559.5 L 848 604.5 L 851.5 609 Q 871.2 621.8 887 638.5 Q 918 669.5 937 712.5 L 954 761.5 L 966 812.5 L 972 832.5 L 973 840.5 L 982 870.5 L 982 874.5 L 993 908.5 L 1001 927.5 L 1009 941.5 Q 1016.3 953.3 1026.5 962 L 1040.5 972 Q 1052.6 973.4 1059 980.5 L 1063.5 988 L 1079.5 993 L 1098 1008.5 L 1106 1022.5 L 1108 1030.5 L 1108 1038.5 L 1107 1043.5 L 1101.5 1052 L 1097.5 1055 L 1087.5 1058 L 1076.5 1058 L 1069.5 1056 L 1059.5 1061 L 1054.5 1062 L 1039.5 1062 Q 1038 1059.5 1032.5 1061 L 1025.5 1065 L 1013.5 1068 L 988.5 1069 L 978.5 1067 L 970.5 1061 L 967.5 1061 Q 966 1063.5 960.5 1062 Q 946.2 1058.3 938 1048.5 L 905 987.5 L 897.5 978 L 886.5 971 L 883.5 971 L 880 973.5 L 877.5 977 Q 873.5 977.5 873 974.5 L 867.5 966 L 866 966.5 L 866 977.5 L 862.5 979 L 849.5 974 L 848.5 975 L 837.5 976 L 834 978.5 L 834.5 982 Q 836.6 977.6 842.5 977 L 844 978.5 L 840.5 982 L 836 983 L 837 985.5 L 836 988 L 826 992 L 834 1005.5 L 835 1014.5 L 834 1015.5 L 834 1028.5 L 829 1041.5 L 849 1072.5 L 852 1083.5 L 852 1097.5 Q 848.6 1114.6 837.5 1124 Q 835.3 1123.3 836 1125.5 Q 829.8 1147.3 814.5 1160 L 801.5 1168 L 785.5 1174 Q 780 1172.5 778.5 1175 L 741.5 1175 L 740.5 1174 L 728.5 1174 L 727.5 1173 L 706.5 1172 L 705.5 1171 L 690.5 1171 L 689.5 1170 L 642.5 1170 L 623.5 1174 L 617.5 1174 L 615 1173 L 610.5 1167 L 602 1159.5 L 601.5 1158 L 597 1172.5 L 593 1180.5 L 582.5 1192 L 568.5 1200 L 559.5 1201 L 550.5 1199 Q 533.4 1212.9 501.5 1212 L 484.5 1208 L 475.5 1212 L 465.5 1214 L 445.5 1214 L 430.5 1210 L 424.5 1205 L 422.5 1205 Q 413.8 1208.8 399.5 1207 Q 386.6 1204.4 380 1195.5 L 376 1185.5 L 376 1176.5 Q 381.1 1155.1 396.5 1144 L 412.5 1136 L 424 1127.5 L 439 1108.5 L 437.5 1108 Q 435.8 1110.8 429.5 1109 L 426 1108 L 427 1104.5 L 418.5 1103 L 417 1101.5 L 418.5 1099 L 424 1096.5 L 418.5 1095 L 397.5 1095 L 387 1088.5 L 388.5 1086 L 393 1083.5 L 375.5 1083 L 370 1079.5 L 371 1070 L 360.5 1077 L 348.5 1083 L 345 1083 L 343.5 1080 Q 336.5 1080 332.5 1083 L 321.5 1083 L 306.5 1092 L 303.5 1092 L 288.5 1100 L 282.5 1101 L 281 1098 L 264.5 1103 L 260.5 1102 Q 241.9 1116.9 206.5 1115 L 193.5 1112 L 186.5 1114 L 163.5 1116 L 162.5 1117 L 141.5 1117 L 139.5 1117 L 124.5 1118 L 121.5 1117 L 113.5 1117 L 107.5 1120 L 92.5 1123 L 67.5 1123 L 47.5 1119 L 23.5 1110 L 21 1107.5 L 21 1059.5 L 25 1042.5 L 23 1043.5 L 20.5 1047 Q 16.3 1048.3 18 1043.5 Q 21.4 1024.9 30 1011.5 L 28.5 1011 L 22.5 1016 L 20 1016 L 20 1010.5 L 27 994.5 L 43 972.5 L 40.5 972 Q 39.3 974.2 34.5 973 Q 31.7 971.7 34 970.5 L 41.5 961 L 82.5 929 Q 93 920.5 107 915.5 L 105 915 L 106.5 911 L 121.5 900 L 131.5 895 L 147.5 891 L 163.5 891 L 164.5 892 L 173.5 892 L 185 894 L 181 886.5 L 181 882 L 187.5 883 L 207.5 895 L 220.5 899 L 219 896.5 L 219.5 894 L 227.5 894 L 250.5 901 L 265.5 908 L 267.5 903 L 271 902.5 L 246 875.5 L 242 868.5 L 242 863 L 245.5 865 L 246 863.5 L 239 849.5 L 234 844.5 L 233 838.5 L 241 825.5 L 243 816 L 241 815.5 L 241 807.5 L 247 778.5 L 249 757.5 L 244 730.5 L 236 711.5 L 235 705.5 L 246 687.5 L 246 685.5 L 237 667.5 L 237 662.5 Q 238.6 659.5 244 661 L 246 655.5 L 246 651.5 L 242 644.5 Q 243.3 641.8 244.5 644 Q 246.8 644.8 246 642.5 L 244 639.5 L 241 623.5 L 235 613.5 Q 235.8 609.2 241.5 610 L 243 610.5 Q 241.8 604.3 245.5 603 Q 249.9 604.5 249 601.5 L 250 599.5 L 248 592.5 L 236 571.5 Q 237 568 242.5 569 L 247 570 L 247 562.5 L 244 553.5 L 244 548 Q 247.8 547.3 249 550.5 Q 251.3 553.7 250 560.5 L 252 565.5 L 252 571.5 L 245.5 574 L 242 573 L 252 590.5 L 254 601.5 L 251.5 606 L 248 605 Q 247.3 611.1 251 614.5 L 251 621.5 L 248.5 623 L 246 620.5 L 245 614 L 242 615.5 L 250 641.5 L 251 654.5 Q 250.1 661.1 245.5 664 Q 240.7 662.3 242 666.5 L 251 684.5 L 252 693.5 L 248.5 691 Q 246.3 690.3 247 692.5 L 240 705.5 L 240 708.5 L 245 720.5 L 251 741.5 L 252 754.5 L 253 755.5 L 253 768.5 L 249 788.5 L 248 802 L 250 802.5 L 249 803.5 L 248 819.5 L 239 839.5 L 239 844.5 L 241 845.5 Q 239.3 838.8 242.5 837 Q 246.3 835.8 245 839.5 L 245 841.5 L 244 846.5 L 253 871 L 247.5 867 L 247 868.5 Q 253.3 881.2 263.5 890 L 285 908.5 L 286.5 911 Q 288.3 908.3 294.5 910 L 331.5 937 L 348 953.5 L 347.5 955 L 329.5 944 L 304.5 925 L 289.5 917 L 276.5 907 L 271 906 L 271 908.5 L 276 913.5 L 273.5 914 Q 261.3 911.7 252.5 906 Q 242.5 905 235.5 901 L 230.5 901 L 224.5 898 L 226.5 901 L 232.5 902 L 235 904.5 Q 234.3 906.8 230.5 906 L 213.5 902 L 187.5 889 L 189 891.5 L 193 896.5 L 193 899 L 176.5 896 L 145.5 896 Q 126.5 899.5 115 910.5 Q 114.3 912.8 116.5 912 Q 120.4 908 128 909 L 125.5 913 Q 109.4 917.9 96.5 926 L 64 949.5 L 65.5 950 L 81.5 945 L 95.5 945 L 107.5 948 L 113 951.5 L 111.5 951 L 92.5 949 L 91.5 950 L 80.5 950 L 60.5 955 Q 49.9 958.9 43 966.5 L 42 968.5 L 44.5 969 L 52 967 L 52 969.5 Q 39.8 981.3 31 996.5 L 27 1006.5 L 31.5 1003 L 38 1000 L 38 1004.5 L 32 1015.5 L 25 1034.5 L 27 1035 L 35 1019.5 L 36 1014.5 L 38.5 1012 L 42 1011 L 42 1014.5 L 33 1032.5 L 28 1050.5 L 27 1070.5 L 26 1071.5 L 26 1103.5 L 33.5 1108 L 50.5 1114 L 73.5 1118 L 85.5 1118 L 86.5 1117 L 94.5 1117 L 105.5 1115 L 118.5 1111 Q 131.6 1106.1 141.5 1098 L 142 1099.5 L 139 1104 L 126 1112.5 L 127.5 1113 L 128.5 1112 Q 138 1113.5 143.5 1111 L 144.5 1112 L 155.5 1112 L 167.5 1109 L 169.5 1110 L 170.5 1109 L 181.5 1108 Q 192.3 1101.8 200 1092.5 Q 209.3 1081.8 215 1067.5 L 219 1053.5 L 220.5 1036 L 222 1038.5 L 222 1050.5 L 223 1051.5 L 219 1068.5 L 214 1077.5 L 216 1078.5 Q 208.4 1091.4 197.5 1101 L 186 1108.5 L 199.5 1109 L 205.5 1111 L 221.5 1111 L 248.5 1103 L 283 1081 L 275.5 1091 L 266 1097.5 L 269.5 1098 L 277.5 1095 L 282.5 1095 L 287.5 1096 L 314.5 1082 L 332.5 1069 L 334.5 1069 L 333 1071.5 L 326 1079.5 L 328.5 1080 L 345.5 1075 L 350.5 1077 Q 362.8 1072.3 371.5 1064 L 373.5 1064 L 375 1065.5 L 377 1076 L 379.5 1077 L 396.5 1078 L 401 1081.5 Q 402.1 1084.8 399.5 1084 L 396 1086.5 L 397.5 1088 L 413.5 1088 L 428.5 1092 L 432 1095.5 Q 428.3 1097.3 431.5 1099 L 438 1099 L 438 1102 L 435 1103.5 L 444.5 1104 Q 451.5 1096 462.5 1092 L 491.5 1085 L 499 1078.5 L 501 1072.5 L 501 959.5 L 499 953.5 L 497 927.5 L 498 926.5 L 498 918.5 L 497 917.5 L 497 905 L 495 905 L 495 910 L 493 910 L 491 903.5 L 490 879.5 L 491 878.5 L 492 863.5 L 491 862.5 L 491 853.5 L 489.5 851 L 488.5 854 L 485 848.5 L 483 840.5 L 483 828.5 L 484 827.5 L 484 817.5 L 485 816.5 L 485 803.5 L 478 783.5 L 477 775 L 473.5 776 L 469 766.5 L 462 732.5 L 462 724.5 L 461 723.5 L 461 683.5 L 463 677 L 465 677.5 L 465 685.5 L 466 686.5 L 466 717.5 L 467 718.5 L 467 727.5 L 468 728.5 L 468 735.5 L 469 736.5 L 472 759.5 L 473.5 763 Q 472.6 757.6 475.5 756 L 479 762.5 L 481 777.5 L 484.5 789 L 485 786 Q 488.7 784.6 487 790.5 L 489 798.5 L 489 816.5 L 488 817.5 L 488 837.5 L 489 837.5 L 491.5 833 L 493 833.5 L 493 844.5 L 496 861.5 L 495 862.5 L 495 872.5 L 494 873.5 L 495 874.5 L 495.5 895 L 496.5 889 L 499 893.5 L 500 905.5 L 501 906.5 L 501 938.5 L 502 939.5 L 503 955.5 L 504 956.5 L 505 1042.5 L 504 1043.5 L 504 1059.5 L 503 1060.5 L 502 1077.5 L 496.5 1087 L 481.5 1093 L 463.5 1097 Q 448.7 1102.7 440 1114.5 L 420.5 1137 Q 402.2 1143.2 391 1156.5 L 383 1171.5 L 382 1185.5 L 388.5 1196 Q 398.1 1203.4 416.5 1202 L 422 1200.5 Q 416.1 1194.4 417 1181.5 L 421 1168.5 L 429.5 1159 L 432 1159.5 L 423 1175.5 L 422 1189.5 Q 424 1199.5 431.5 1204 L 445.5 1208 L 467.5 1208 L 483 1203.5 Q 474.5 1196 475 1179.5 Q 477.8 1168.3 485.5 1162 Q 487.8 1161.3 487 1163.5 Q 480.5 1171 480 1184.5 Q 481.9 1196.6 489.5 1203 Q 499.9 1208.1 517.5 1206 L 539.5 1201 Q 548.2 1198.2 553 1191.5 L 559 1181 Q 563.5 1179.3 562 1184.5 L 557 1195 L 563.5 1195 L 570.5 1193 Q 580.3 1188.3 587 1180.5 L 593 1169.5 L 597 1151.5 L 586 1131.5 L 584 1122.5 L 584 1105.5 L 589 1082.5 L 598.5 1071 L 611.5 1065 L 631.5 1063 L 653.5 1055 L 699.5 1028 L 726.5 1016 L 752.5 1010 L 775.5 1010 L 785.5 1012 L 802.5 1019 L 827 1038 L 830 1022.5 L 830 1010.5 Q 827.7 997.8 818 992.5 L 831 984.5 Q 827 983.5 828 977.5 L 837.5 971 L 848.5 969 Q 849.7 971.3 854.5 970 L 860.5 973 L 863 960.5 L 854 940.5 Q 846.9 932.6 843 921.5 L 844.5 921 Q 853.4 928.1 859 938.5 Q 863.5 945 865 954.5 L 868.5 960 L 871 961.5 L 876 971 Q 878.7 972.1 878 969.5 Q 879.3 965.3 885.5 966 L 896.5 972 L 896 970.5 L 887 948.5 L 885 932.5 L 883.5 931 Q 881.8 933.7 880 929.5 L 878 923.5 L 877 911.5 L 868 895.5 L 864 876.5 L 851.5 858 L 833 843.5 L 825 826.5 L 823 817.5 L 823 809.5 L 824 809.5 L 831 829.5 L 837.5 840 L 841 842.5 L 845.5 848 Q 852.4 849.6 855 855.5 L 865 869.5 L 871.5 891 Q 880.8 853.3 907.5 833 Q 915.6 823.3 929 820 Q 930.1 822.7 927.5 822 L 900 846.5 Q 886.9 859.9 879 878.5 L 876 888.5 L 875 899.5 L 880 908.5 L 882 920.5 L 884.5 927 Q 887.4 925.4 886.5 920 L 889 926.5 L 889 936.5 L 893 954.5 L 896 962.5 L 899 965.5 L 905.5 979 Q 904.6 973.6 907.5 972 L 910 984.5 L 918 1001.5 Q 929 1016.5 936 1035.5 L 946.5 1049 Q 953.8 1056.2 967.5 1057 L 967 1055.5 Q 965.8 1049.4 968.5 1050 L 975.5 1059 L 984.5 1063 L 1011.5 1063 L 1023.5 1060 L 1031 1055.5 L 1034 1046.5 L 1034 1039.5 L 1032 1028.5 L 1029 1022.5 L 1021.5 1015 L 1020 1014.5 Q 1021.3 1011.8 1022.5 1014 Q 1028.4 1014.6 1031 1018.5 L 1037 1030.5 L 1039 1043.5 L 1039 1045.5 L 1036 1056 L 1042.5 1057 L 1052.5 1057 L 1063.5 1054 L 1068 1050.5 Q 1071.8 1043.3 1070 1030.5 L 1065 1017.5 L 1058 1008 L 1060.5 1008 L 1067 1013.5 L 1074 1028.5 Q 1076.3 1035.2 1075 1045.5 L 1073 1052 Q 1078.2 1054.2 1088.5 1053 Q 1096.7 1051.2 1101 1045.5 Q 1104 1040.5 1103 1031.5 L 1099 1019.5 L 1086.5 1004 Q 1077 996 1063.5 992 L 1053.5 990 L 1033.5 990 Q 1009.4 994.4 993.5 1007 L 993 1005.5 Q 1010.8 984.3 1050.5 985 L 1054.5 986 L 1050.5 981 L 1028.5 970 L 1011 953.5 L 1001 938.5 L 989 911.5 L 974 863.5 L 948 762.5 L 940 737.5 L 930 712.5 Q 908.2 665.8 872.5 633 L 845 609.5 L 820 560.5 L 803 534.5 L 800 527 L 797 528.5 Q 792.1 538.1 783.5 544 L 773 550 Q 771.8 553 775.5 552 L 792.5 560 L 796 563.5 L 795.5 565 L 768.5 554 L 760.5 559 L 742 566 L 743.5 569 L 787 608.5 L 786.5 610 Q 760 591.5 737.5 569 L 734.5 569 L 713.5 577 L 700.5 578 L 690.5 582 L 673.5 583 L 658.5 592 L 641.5 599 L 620.5 599 L 612.5 597 L 595.5 589 L 590.5 588 L 567.5 588 L 545.5 584 L 533.5 578 L 528.5 577 L 518 570.5 L 518.5 569 L 526.5 571 L 533.5 571 Q 539.7 577.3 550.5 579 L 567.5 582 L 590.5 582 L 612.5 591 L 625.5 594 L 636.5 594 L 651.5 590 L 671.5 578 L 691.5 576 L 703.5 571 L 705.5 574 L 712.5 573 L 733 565.5 Q 707.3 538.7 678 515.5 L 674.5 511 L 662 500.5 L 664.5 500 Q 695.5 523 722.5 550 L 724 550 Q 722.9 552.7 725.5 552 Q 730.3 560.2 739.5 564 L 764 553 Q 765.1 550.3 762.5 551 L 741.5 541 L 733.5 539 L 731 540 Q 732 536.2 729.5 535 L 690.5 513 L 660 491 Q 658.9 488.3 661.5 489 L 693.5 510 L 730.5 531 L 765.5 548 L 769.5 548 Q 782.6 541.1 791 529.5 L 794 524 L 780 520.5 L 787.5 520 L 797 522 L 806 506.5 L 810 491.5 L 810 486.5 L 813 473.5 L 813 463.5 L 814 462.5 L 814 438.5 L 813 437.5 L 811 418.5 L 806 402.5 Q 794.6 378.9 780 358.5 L 780 355.5 L 788.5 346 Q 799.4 340.4 807 331.5 L 812 321.5 L 807.5 316 L 803 312.5 L 803.5 309 L 805 312 L 808 313.5 L 811.5 318 L 813 316.5 L 817 285.5 L 815.5 286 L 798.5 292 Q 793 290.5 791.5 293 L 769.5 293 L 758.5 290 L 735.5 280 L 724.5 277 L 708.5 276 L 707.5 275 L 706.5 276 L 694.5 276 L 680 281 L 681 276.5 L 679.5 277 L 666.5 284 L 650.5 290 L 653 286.5 L 652.5 285 L 645.5 285 L 641.5 286 Q 639.5 283 633.5 284 L 628.5 285 L 624.5 288 L 619.5 288 L 597 279 L 600 283.5 L 595.5 284 L 562.5 267 L 560 267 L 563 272.5 L 563 276 L 558.5 276 L 542.5 271 L 535.5 271 L 519.5 278 L 493.5 278 L 483.5 276 L 483.5 277 L 488.5 278 L 518.5 292 L 542 308.5 Q 542.8 310.8 540.5 310 Q 529.4 318.8 514 322 L 515.5 318 L 535 308.5 L 521.5 299 L 499.5 288 L 473.5 277 L 467 276 L 467.5 274 L 474.5 274 L 474.5 273 L 464.5 270 L 457.5 270 L 453 272 L 453 278.5 L 465 297.5 Q 470.2 304.8 472 315.5 L 469 317.5 L 482 328.5 L 485.5 333 L 493 336.5 L 497 344.5 L 484.5 361 Q 480.7 365.7 473.5 367 L 474 365.5 L 475.5 363 L 484 356.5 Q 487.5 348 495 343.5 L 472 325.5 L 465.5 317 L 465 322.5 L 472 336.5 L 473 342.5 Q 462.3 349.3 463 367.5 L 463 369.5 Q 463.8 371.8 461.5 371 L 449 382.5 Q 440.2 391.7 436 405.5 L 437.5 405 L 439 405.5 Q 432.5 415 431 429.5 L 433 431.5 Q 431.2 437.7 434 439.5 L 434 470.5 L 435 471.5 L 435 480.5 L 437 491.5 L 450 522.5 Q 456 534 465.5 542 L 470.5 545 L 533.5 514 L 547 503.5 L 573.5 473 L 592.5 459 L 600 451.5 L 610.5 439 L 619.5 434 L 632 430 L 634 419.5 L 636 382.5 L 633 370.5 L 625.5 359 L 621 356.5 L 615 347.5 L 611 334.5 L 605 327.5 L 604 317.5 L 606.5 313 L 608 315.5 L 609 325.5 L 615 332.5 L 622 349.5 L 625.5 353 L 633 358.5 L 638 371.5 L 638 375.5 L 639.5 377 Q 643.2 364.2 652.5 357 L 660 353 L 658 357.5 L 659.5 358 L 666 351.5 L 682.5 327 L 683 328.5 Q 675.7 347.2 662.5 360 Q 660.3 364.3 652.5 363 L 649 366.5 L 641 384.5 L 638 422.5 L 636 429.5 L 645.5 434 L 656 442.5 L 664 456.5 L 689.5 482 L 699 490.5 L 709.5 505 L 747.5 511 L 775 518.5 L 770.5 519 L 746.5 513 L 716.5 509 L 712.5 507 L 712 508.5 L 720 521.5 L 718.5 522 L 688.5 487 L 669 468.5 L 664 461 Q 660.5 459.9 662 467.5 L 661 471.5 L 655.5 477 L 649.5 478 L 645.5 477 L 644 478.5 L 643 488.5 L 637.5 495 L 632 497 L 633 502.5 L 633 515.5 L 638.5 522 L 668 548.5 L 670 551.5 L 668.5 551 L 662.5 549 L 647.5 538 L 637.5 533 L 626.5 532 L 618.5 534 L 600.5 546 L 590.5 550 L 590 548 Q 609.9 534.4 627 516.5 L 628 514.5 L 629 497.5 L 621 492 L 618 486.5 L 618 477 Q 608.1 478.3 604 472.5 L 603 465.5 L 610.5 455 L 621.5 450 L 641.5 450 Q 651.2 452.3 657 458.5 L 659.5 462 L 660 458.5 Q 656.6 446.9 647.5 441 L 633.5 433 L 627.5 437 L 624.5 437 L 615.5 441 L 604 451.5 L 596.5 461 Q 578.6 472.1 565 487.5 L 548.5 506 L 547 506.5 L 549.5 507 L 581.5 491 L 601 485 Q 602.1 487.7 599.5 487 L 546.5 513 L 537.5 516 L 528 522.5 L 526.5 526 L 520.5 525 L 474 547.5 L 479 553.5 L 475.5 554 L 467.5 550 L 455.5 557 L 442.5 561 L 439 558.5 L 437 554 L 435 554.5 L 440 563.5 L 440 573.5 L 444 579.5 L 448 590.5 L 449 598.5 L 450.5 600 Q 458.6 595.1 459 582.5 L 451 575.5 L 453.5 577 L 461 581.5 Q 461.6 587.6 459 590.5 L 483.5 567 Q 504.9 546.9 530.5 531 L 563.5 512 L 579.5 501 L 597.5 494 L 598 496 L 576.5 506 L 525.5 538 L 499.5 558 L 469.5 586 L 468 586 L 455 601.5 L 455 619.5 L 454 624.5 L 455.5 627 Q 457.8 623.3 457 616.5 L 458.5 614 Q 463.1 617.4 461 627.5 L 458 642.5 L 458 659.5 L 461 673.5 L 461 675.5 L 458.5 684 L 457 682.5 L 455 673.5 L 455 667.5 L 453 660.5 L 453 650.5 L 454 649.5 L 455 631.5 Q 453 633.2 451 629.5 Q 448.4 623.6 450 613.5 L 451 609.5 L 449.5 605 L 437 616.5 L 447 603.5 L 447 599.5 L 440 580.5 L 436 573.5 L 436 569.5 L 433 560.5 L 422 540.5 L 420 532.5 L 420 524.5 L 415 503.5 Q 417.5 502 416 496.5 L 413.5 491 L 412 494.5 Q 414.8 496.2 414 501.5 L 409 497.5 L 396.5 476 L 396 479.5 L 399 484.5 L 395.5 487 L 380 468.5 L 364 432.5 L 352 412.5 L 338 359.5 L 329 316.5 L 323 298.5 L 320 294.5 L 326 277.5 L 329 260.5 L 329 252.5 L 327 241.5 L 323 230.5 L 314.5 220 L 307.5 218 L 305 219 Q 306.1 210.1 303 204.5 Q 298 194 289.5 187 L 278.5 183 Q 270.4 184.4 267 190.5 L 264.5 195 L 257.5 187 Q 253.3 182.7 243.5 184 Q 236.1 186.6 232 192.5 L 227 202.5 L 226 213 L 215.5 207 L 205.5 205 L 196 210.5 L 193 216.5 L 193 231.5 L 199 250.5 L 226 302.5 L 230 312.5 L 230 321.5 L 227 335.5 L 227 352.5 L 226 353.5 L 226 403.5 L 227 404.5 L 227 429.5 L 228 430.5 L 230 453.5 L 238 484.5 L 247 512.5 Q 245.8 515.3 244.5 513 L 238.5 511 L 238 514.5 L 252 537.5 L 257 553.5 L 257 561.5 Q 255 565 253 560.5 L 251 555.5 L 252 551.5 L 248 541.5 L 232 513.5 L 232 508.5 Q 232.8 506.3 236.5 507 L 241.5 509 L 241 507.5 L 241 504.5 L 230 475.5 L 223 439.5 L 222 420.5 L 221 419.5 L 221 344.5 L 222 343.5 L 222 333.5 L 225 320.5 L 225 312.5 L 195 254.5 L 188 233.5 L 187 218.5 Q 189.1 208.1 196.5 203 Q 201.9 199.4 212.5 201 L 221.5 205 Q 225 189.5 236.5 182 Q 241 177.5 251.5 179 Q 259.3 181.2 263.5 187 Q 268.7 180.2 278.5 178 Z M 621 455 L 610 460 L 607 469 Q 609 473 615 473 Q 614 469 617 468 L 622 469 L 624 475 L 620 483 L 621 486 L 631 495 L 637 491 L 641 486 Q 642 479 639 477 L 640 472 L 645 468 L 647 469 Q 649 470 648 474 Q 655 474 657 470 Q 658 464 655 462 Q 651 456 644 455 L 621 455 Z M 631 520 L 623 529 L 628 528 L 638 529 L 639 530 Q 640 527 638 528 L 631 520 Z M 475 765 L 475 772 L 476 772 Q 477 767 475 765 Z M 490 844 L 489 848 L 490 848 L 490 844 Z M 757 1015 L 738 1019 L 718 1026 Q 694 1037 674 1051 L 644 1065 L 628 1069 L 613 1070 L 603 1074 Q 596 1078 593 1087 L 589 1107 L 589 1120 L 591 1130 Q 595 1142 603 1152 Q 610 1163 624 1168 L 638 1165 L 653 1165 L 654 1164 L 687 1164 L 688 1165 L 726 1167 L 727 1168 L 739 1168 L 740 1169 L 755 1169 L 756 1170 L 773 1170 L 774 1169 L 782 1169 L 791 1167 Q 802 1163 811 1156 L 823 1143 L 830 1131 L 830 1128 L 830 1126 L 841 1113 L 845 1105 L 847 1096 Q 847 1083 844 1075 Q 840 1065 832 1059 Q 830 1049 824 1044 Q 811 1028 792 1020 L 777 1016 L 757 1015 Z " /><path fill="currentColor" stroke="currentColor" stroke-width="1" opacity="1" d="M 245.5 193 Q 251.3 193.3 254 196.5 L 259 208.5 L 259 218.5 L 254.5 224 L 247.5 225 L 241 220.5 L 237 211.5 L 237 203.5 Q 238.5 197 243.5 194 L 245.5 193 Z M 247 197 L 243 199 L 241 206 L 242 214 L 244 218 L 249 222 L 252 222 L 256 216 L 252 202 L 247 197 Z " /><path fill="currentColor" stroke="currentColor" stroke-width="1" opacity="1" d="M 281.5 193 Q 289.4 192.1 291 197.5 Q 295.5 203 294 214.5 Q 292.5 221 287.5 224 L 283.5 225 L 276 220.5 L 273 209.5 L 275 199.5 L 279.5 194 L 281.5 193 Z M 283 197 L 279 201 L 277 208 Q 276 215 279 218 Q 280 222 286 221 L 290 216 Q 292 205 288 201 Q 288 197 283 197 Z " /><path fill="currentColor" stroke="currentColor" stroke-width="1" opacity="1" d="M 208.5 218 L 214.5 218 L 220 222.5 L 227 234.5 L 228 243.5 L 222.5 251 L 216.5 251 L 208 244.5 Q 201.8 238.2 203 224.5 L 206.5 219 L 208.5 218 Z M 210 222 L 207 226 L 207 233 L 211 242 Q 213 247 222 247 L 224 243 L 223 236 L 218 227 Q 216 222 210 222 Z " /><path fill="currentColor" stroke="currentColor" stroke-width="1" opacity="1" d="M 260.5 229 Q 274 229.5 279 238.5 L 286 252.5 L 293.5 260 L 302 266.5 L 305 274.5 L 305 278.5 Q 303.6 286.6 297.5 290 L 291.5 293 L 285.5 293 L 274.5 288 L 263.5 288 L 252.5 295 Q 247.8 297.3 239.5 296 L 230 288.5 L 229 276.5 L 230 272.5 L 242 254.5 L 244 242.5 L 249.5 234 L 260.5 229 Z M 259 234 L 255 236 L 250 242 L 247 256 L 244 262 L 236 272 L 234 277 L 234 284 L 237 289 L 244 292 L 254 290 L 266 284 L 276 284 L 285 288 Q 291 289 295 287 L 300 280 Q 301 272 298 269 L 289 262 Q 279 253 274 240 L 269 235 L 259 234 Z " /><path fill="currentColor" stroke="currentColor" stroke-width="1" opacity="1" d="M 307.5 230 Q 315.1 228.9 317 233.5 Q 321.5 240 320 252.5 Q 318.5 259 313.5 262 L 308.5 263 L 302 257.5 L 299 249.5 L 299 243.5 Q 300.8 234.3 307.5 230 Z M 310 234 Q 305 237 304 243 L 305 255 L 311 259 L 314 257 L 316 253 Q 318 240 312 236 Q 313 233 310 234 Z " /><path fill="currentColor" stroke="currentColor" stroke-width="1" opacity="1" d="M 780 300 Q 783.8 299.3 785 302.5 L 782.5 303 Q 778.3 304.1 780 300 Z " /><path fill="currentColor" stroke="currentColor" stroke-width="1" opacity="1" d="M 767.5 304 L 773 304.5 L 749 317 Q 747.9 319.7 750.5 319 L 760 323 L 761 330 Q 769.4 328.6 772 334.5 Q 771.2 337.1 774.5 336 L 781 340.5 Q 781.9 343.9 776.5 342 L 756 330.5 Q 756.8 325.8 753.5 325 L 741 317.5 Q 740.2 314.9 743.5 316 L 767.5 304 Z " /><path fill="currentColor" stroke="currentColor" stroke-width="1" opacity="1" d="M 279.5 311 L 290.5 312 L 298 318.5 L 301 324.5 L 305 339.5 L 305 354.5 L 304 355.5 L 304 373.5 L 302.5 380 L 302 357.5 L 301 356.5 L 300 339.5 L 296 325.5 L 290.5 318 Q 286.8 314.7 278.5 316 Q 271.2 321.7 256.5 320 L 248 326.5 L 245 334.5 L 245 356.5 L 246 357.5 L 246 368.5 L 247 369.5 L 247 404.5 Q 249.3 405.8 248 410.5 Q 250.1 423.4 258.5 430 Q 263.9 433.6 272.5 434 Q 281.1 432.1 286 426.5 Q 296.7 413.7 300.5 394 L 301 403.5 Q 297.8 422.8 285.5 433 Q 279.8 438.8 268.5 439 Q 255.2 436.4 249 426.5 L 244 414.5 L 242 403.5 L 242 351.5 L 241 350.5 L 241 335.5 L 245 323.5 L 249.5 319 L 261.5 315 L 263.5 315 L 270.5 315 L 279.5 311 Z " /><path fill="currentColor" stroke="currentColor" stroke-width="1" opacity="1" d="M 552.5 401 L 562.5 401 L 575.5 405 Q 584.3 409.3 590 416.5 L 597 427.5 L 603 445 Q 600.4 442.3 593.5 443 L 576.5 453 L 568.5 455 L 562.5 455 Q 544.9 451.6 537 438.5 L 532 430.5 L 529 419.5 L 526.5 416 L 515.5 416 L 499.5 425 L 496 428.5 L 498 429.5 L 492 437.5 L 475.5 472 L 475 468.5 L 486 438.5 Q 489.6 428.6 496.5 422 L 507.5 415 L 517.5 412 L 528.5 411 L 540.5 404 L 552.5 401 Z M 554 407 L 541 411 L 538 414 L 536 420 Q 537 431 543 437 Q 549 445 561 448 L 571 448 L 580 444 Q 586 440 588 432 L 588 426 L 583 419 L 574 412 L 572 412 L 573 417 L 570 415 L 566 418 L 569 421 L 573 419 L 573 428 L 570 437 L 561 445 Q 552 440 550 429 Q 549 413 558 408 L 554 407 Z M 593 434 L 591 439 L 591 440 L 594 439 L 593 434 Z " /><path fill="currentColor" stroke="currentColor" stroke-width="1" opacity="1" d="M 706.5 404 Q 720.3 403.7 728.5 409 L 747 426.5 L 738.5 427 L 737 428.5 L 735 434.5 L 726.5 445 L 712.5 454 L 704.5 456 L 695.5 456 L 687.5 454 L 672.5 446 L 665 446 Q 670 427.7 682.5 416 Q 691.2 406.7 706.5 404 Z M 711 411 L 715 419 L 716 424 Q 716 441 706 448 L 702 446 Q 694 441 692 430 L 692 423 L 694 416 L 690 418 L 678 432 Q 677 439 681 443 Q 685 448 694 450 L 706 450 L 719 444 L 729 433 Q 732 429 731 421 Q 727 415 719 412 L 711 411 Z M 709 417 L 706 420 Q 707 423 712 422 L 713 420 Q 713 417 709 417 Z M 674 440 L 672 442 Q 671 444 674 443 L 674 440 Z " /><path fill="currentColor" stroke="currentColor" stroke-width="1" opacity="1" d="M 749.5 427 Q 761.8 429.7 768 438.5 L 776 455.5 L 773 453.5 Q 767.1 440.9 756.5 433 Q 750.5 430.7 749.5 427 Z " /><path fill="currentColor" stroke="currentColor" stroke-width="1" opacity="1" d="M 284.5 482 L 299 503.5 L 306.5 512 Q 309.3 510.7 307 509.5 L 305 504.5 L 308.5 503 L 312.5 507 L 327.5 516 L 335 523.5 L 339 530.5 L 337.5 531 L 314.5 513 L 309 511 L 313 520 L 306.5 518 L 297 508.5 L 285 488.5 L 284.5 482 Z " /><path fill="currentColor" stroke="currentColor" stroke-width="1" opacity="1" d="M 708.5 582 L 712 582.5 L 697.5 593 L 649.5 617 L 650.5 615 Q 664.8 609.3 675.5 600 L 695.5 591 L 708.5 582 Z " /><path fill="currentColor" stroke="currentColor" stroke-width="1" opacity="1" d="M 545 588 L 552.5 590 L 572.5 600 L 590.5 602 L 616 615.5 L 613.5 616 L 588.5 604 L 575.5 603 L 564.5 600 L 545 590 L 545 588 Z " /><path fill="currentColor" stroke="currentColor" stroke-width="1" opacity="1" d="M 654.5 657 L 680.5 680 Q 682.9 675.9 682 668.5 L 684.5 665 L 699.5 681 L 702.5 676 L 706.5 677 Q 717.2 688.8 732.5 696 L 733 685.5 L 736.5 679 L 740.5 678 L 748.5 683 L 769.5 703 L 780 710.5 L 776.5 711 Q 767.5 708 761.5 702 L 739.5 681 Q 734.9 685.9 737 697.5 L 737.5 699 L 734.5 699 L 721.5 694 L 704 681 L 704 687 L 701.5 687 L 690 676.5 L 685.5 671 L 683 684 L 679.5 684 L 673.5 680 L 662 668.5 L 655.5 661 L 652 669.5 L 648.5 673 L 637.5 669 L 628.5 674 L 625 674 Q 623.5 670.2 626.5 671 L 638.5 664 L 647.5 669 Q 651.6 667.1 651 660.5 L 654.5 657 Z " /><path fill="currentColor" stroke="currentColor" stroke-width="1" opacity="1" d="M 627.5 662 L 628 664.5 L 611.5 678 L 602.5 682 L 600.5 681 L 567.5 707 L 553.5 714 L 555.5 711 L 589.5 683 L 604.5 673 L 607 673 Q 605.9 675.7 608.5 675 L 627.5 662 Z " /><path fill="currentColor" stroke="currentColor" stroke-width="1" opacity="1" d="M 812.5 705 L 820.5 705 L 821.5 706 L 824 705 Q 825.1 707.7 822.5 707 Q 819.6 709.6 813.5 709 L 803.5 715 L 797.5 715 L 792 711.5 L 794.5 711 L 796.5 711 L 802.5 711 L 812.5 705 Z " /><path fill="currentColor" stroke="currentColor" stroke-width="1" opacity="1" d="M 404.5 725 L 405 736.5 L 404 737.5 L 404 750.5 L 403 751.5 L 403 762.5 L 402 763.5 L 402 783.5 L 403 784.5 L 403 794.5 L 406 809.5 L 406 818.5 L 404 817.5 L 399 793.5 L 398 773.5 L 399 772.5 L 399 760.5 L 400 759.5 L 401 742.5 L 404.5 725 Z " /><path fill="currentColor" stroke="currentColor" stroke-width="1" opacity="1" d="M 718.5 779 Q 728.9 794.1 742.5 806 L 746.5 808 L 748.5 807 L 755 812.5 Q 754.3 814.8 756.5 814 L 761.5 818 Q 763 814.5 764.5 817 L 798.5 834 L 823.5 856 L 829.5 860 L 835.5 860 L 840 863.5 Q 846.8 871.2 850 882.5 L 847 880.5 L 834.5 865 L 824.5 862 L 814 852.5 L 805.5 843 Q 795.6 834.9 781.5 831 Q 777.2 825.3 769.5 823 L 769 826 L 764.5 825 L 752.5 815 L 750.5 815 L 748.5 815 Q 735.8 807.8 727 796.5 L 718 780.5 L 718.5 779 Z " /><path fill="currentColor" stroke="currentColor" stroke-width="1" opacity="1" d="M 679.5 790 Q 691.1 807.4 706.5 821 L 718 829.5 L 719.5 832 L 720 830 L 723.5 829 L 731.5 831 Q 741.9 842.5 758 847 L 754 841.5 L 757.5 839 L 772.5 842 L 787.5 849 L 791.5 848 L 792.5 849 L 800.5 849 L 805 851.5 L 803.5 853 L 787.5 853 L 760.5 843 Q 757.8 844.3 760 845.5 L 764 850.5 L 758.5 851 Q 739.3 846.2 727.5 834 L 717.5 833 L 712.5 831 L 697 818.5 Q 685.6 805.8 679.5 790 Z " /><path fill="currentColor" stroke="currentColor" stroke-width="1" opacity="1" d="M 577.5 800 L 598.5 800 L 603.5 801 Q 618.6 805.4 628 815.5 L 625.5 816 Q 615.5 808.5 601.5 805 Q 596.8 806.2 595.5 804 L 578.5 804 L 569.5 806 L 554.5 813 Q 546.3 811.8 541.5 814 L 521.5 824 L 523.5 821 L 542.5 810 L 549.5 808 L 556.5 808 L 568.5 802 L 577.5 800 Z " /><path fill="currentColor" stroke="currentColor" stroke-width="1" opacity="1" d="M 413.5 832 L 429.5 866 L 431 861 L 436 864.5 Q 452.3 891.2 465 921.5 L 475 937.5 L 472 935.5 L 459 916.5 L 434.5 870 L 434 877.5 L 432.5 879 Q 417.6 860 413.5 832 Z " /><path fill="currentColor" stroke="currentColor" stroke-width="1" opacity="1" d="M 563.5 847 L 586.5 847 Q 596.7 848.8 604 853.5 L 600.5 854 L 599.5 853 L 581.5 852 L 580.5 851 L 568.5 851 L 554.5 854 L 540.5 861 L 534.5 861 L 532.5 861 L 530.5 861 L 513.5 872 L 513 870.5 Q 520.3 861.8 531.5 857 L 539.5 857 Q 549.2 849.7 563.5 847 Z " /><path fill="currentColor" stroke="currentColor" stroke-width="1" opacity="1" d="M 935.5 862 L 937 862.5 L 913.5 875 L 902 884.5 L 894.5 895 L 893 894.5 Q 897.3 880.3 908.5 873 L 923.5 865 L 935.5 862 Z " /><path fill="currentColor" stroke="currentColor" stroke-width="1" opacity="1" d="M 552.5 888 L 557.5 888 L 570.5 893 Q 581.9 898.6 590 907.5 L 593 911.5 L 591.5 912 L 573.5 899 L 552.5 892 L 519.5 908 L 525.5 901 Q 536.9 892.4 552.5 888 Z " /><path fill="currentColor" stroke="currentColor" stroke-width="1" opacity="1" d="M 682.5 888 Q 690.8 892.2 689.5 906 L 705.5 891 L 706 892.5 Q 682.5 914.5 669 946.5 L 663 960.5 L 659 974.5 L 654 982.5 L 647 1013.5 L 630.5 1054 L 630 1052.5 L 647 986.5 L 654 972.5 Q 656.9 957.9 664 947.5 L 664 944.5 L 658 933.5 L 644 919.5 L 644 918 Q 655.5 921.7 662 931.5 L 666.5 941 Q 674 922.5 687 909.5 L 687 905.5 L 682.5 888 Z " /><path fill="currentColor" stroke="currentColor" stroke-width="1" opacity="1" d="M 949.5 904 L 961 904.5 L 948.5 908 L 927.5 917 L 912.5 929 L 912 927.5 L 922.5 915 L 932.5 909 L 949.5 904 Z " /><path fill="currentColor" stroke="currentColor" stroke-width="1" opacity="1" d="M 561.5 934 Q 574.3 932.3 580 937.5 Q 574 940.5 563.5 939 Q 556 945 542.5 945 L 535.5 942 Q 530 948.8 521 951 L 526.5 944 L 538.5 936 L 542 938.5 Q 541.3 940.8 543.5 940 L 547.5 939 L 549.5 940 L 561.5 934 Z " /><path fill="currentColor" stroke="currentColor" stroke-width="1" opacity="1" d="M 187.5 937 Q 211.8 944.2 225 962.5 Q 233.6 973.4 239 987.5 L 244 1009.5 L 244 1025.5 L 242 1026.5 L 241 1008.5 L 233 983.5 Q 223.9 965.6 209.5 953 Q 201 944 188.5 939 L 187.5 937 Z " /><path fill="currentColor" stroke="currentColor" stroke-width="1" opacity="1" d="M 589.5 938 L 604.5 944 L 626 962 L 638 977.5 L 639 985 Q 636.3 986.1 637 983.5 L 617.5 961 Q 605.5 948 589.5 939 L 589.5 938 Z " /><path fill="currentColor" stroke="currentColor" stroke-width="1" opacity="1" d="M 245 940 Q 261.2 944.6 271 956.5 Q 283.5 968.5 285 991.5 L 284 991.5 Q 277.8 966.8 260.5 953 L 245 941.5 L 245 940 Z " /><path fill="currentColor" stroke="currentColor" stroke-width="1" opacity="1" d="M 944.5 949 L 952 949.5 Q 934.6 955.6 923.5 968 L 923 966.5 L 935.5 953 L 944.5 949 Z " /><path fill="currentColor" stroke="currentColor" stroke-width="1" opacity="1" d="M 161.5 962 L 173 971.5 Q 182.6 981.9 188 996.5 L 191 1009.5 L 191 1028.5 L 187 1049.5 L 183 1061.5 L 177.5 1071 L 177 1069.5 L 181 1061.5 L 186 1044.5 L 188 1033.5 L 188 1019.5 L 187 1018.5 L 187 1010.5 L 181 991.5 Q 173.4 975.1 161 963.5 L 161.5 962 Z " /><path fill="currentColor" stroke="currentColor" stroke-width="1" opacity="1" d="M 1085.5 1010 L 1089 1014.5 L 1086 1012.5 L 1085.5 1010 Z " /><path fill="currentColor" stroke="currentColor" stroke-width="1" opacity="1" d="M 770.5 1026 Q 785.2 1023.8 790 1031.5 L 791 1035.5 Q 788.8 1042.3 783.5 1046 Q 777.3 1050.8 764.5 1049 L 759 1044.5 L 758 1038.5 Q 759.5 1032 764.5 1029 L 770.5 1026 Z M 775 1029 L 765 1032 L 762 1038 Q 761 1042 764 1044 L 768 1046 Q 776 1047 780 1044 L 788 1035 L 787 1033 Q 783 1029 775 1029 Z " /><path fill="currentColor" stroke="currentColor" stroke-width="1" opacity="1" d="M 804.5 1041 Q 812 1041.5 815 1046.5 Q 817.5 1050 816 1057.5 L 809.5 1065 Q 804.8 1068.3 795.5 1067 L 790 1063.5 Q 786.7 1059.8 788 1051.5 L 793.5 1045 L 804.5 1041 Z M 800 1046 L 798 1047 L 792 1054 Q 791 1059 793 1061 L 798 1063 Q 805 1064 808 1061 L 813 1054 L 810 1047 Q 807 1045 800 1046 Z " /><path fill="currentColor" stroke="currentColor" stroke-width="1" opacity="1" d="M 738.5 1051 Q 754.1 1055.4 764.5 1065 Q 779 1067.5 789.5 1074 L 796 1080.5 Q 800.7 1085.3 799 1096.5 Q 797.1 1105.6 790.5 1110 L 776.5 1118 L 771 1123.5 L 764 1138.5 L 760.5 1142 Q 755.3 1146.8 743.5 1145 Q 736.1 1142.9 732 1137.5 Q 727 1132.5 727 1122.5 L 733 1106.5 L 733 1103.5 Q 729.6 1098.4 731 1088.5 Q 725.1 1083.9 722 1076.5 L 721 1067.5 Q 722.7 1059.2 728.5 1055 L 738.5 1051 Z M 739 1056 L 732 1059 L 726 1069 L 727 1076 L 736 1090 L 735 1094 L 737 1104 Q 737 1114 733 1120 Q 732 1130 736 1135 L 747 1141 L 756 1140 L 759 1138 L 763 1133 L 768 1121 Q 775 1112 786 1108 Q 793 1104 795 1095 Q 796 1086 792 1083 L 788 1078 L 778 1073 L 772 1071 L 766 1071 L 747 1059 L 739 1056 Z " /><path fill="currentColor" stroke="currentColor" stroke-width="1" opacity="1" d="M 819.5 1079 Q 832.1 1076.9 835 1084.5 Q 837.7 1087.8 837 1094.5 Q 835.2 1101.7 829.5 1105 Q 826.5 1108 820.5 1108 Q 814 1106.5 811 1101.5 L 810 1099.5 L 810 1088.5 L 815.5 1081 L 819.5 1079 Z M 824 1082 L 819 1084 Q 814 1087 813 1093 L 813 1096 L 816 1102 L 821 1104 L 827 1102 L 833 1094 L 832 1088 Q 830 1083 824 1082 Z " /><path fill="currentColor" stroke="currentColor" stroke-width="1" opacity="1" d="M 629.5 1082 L 632 1082.5 L 622.5 1086 L 616 1090.5 L 615 1097.5 L 616 1098.5 L 616 1107.5 Q 611 1114.5 610 1125.5 L 612 1134.5 L 616.5 1140 L 627.5 1142 L 628.5 1141 L 671.5 1141 L 672.5 1142 L 685.5 1142 L 686.5 1143 L 701.5 1144 L 703 1145.5 L 699.5 1146 L 690.5 1144 L 662.5 1143 L 661.5 1144 L 643.5 1144 L 642.5 1145 L 614.5 1145 L 608 1139.5 L 605 1129.5 L 605 1120.5 L 611 1107.5 L 611 1100.5 Q 608.3 1098.8 610 1092.5 L 614.5 1086 L 618.5 1084 L 629.5 1082 Z " /><path fill="currentColor" stroke="currentColor" stroke-width="1" opacity="1" d="M 795.5 1125 Q 808.1 1123.4 812 1130.5 L 814 1138.5 L 810 1148 L 799.5 1153 L 793.5 1153 Q 787.8 1151.8 785 1147.5 Q 781.1 1144.9 782 1137.5 Q 783.5 1131 788.5 1128 L 795.5 1125 Z M 798 1128 L 791 1131 L 786 1139 L 788 1145 L 795 1149 Q 801 1150 804 1147 L 809 1141 L 808 1133 Q 805 1128 798 1128 Z " /><path fill="rgb(250,250,250)" stroke="rgb(250,250,250)" stroke-width="1" opacity="1" d="M 0 0 L 1143 0 L 1143 1376 L 0 1376 L 0 0 Z M 279 178 Q 269 180 264 187 Q 259 181 252 179 Q 241 178 237 182 Q 225 190 222 205 L 213 201 Q 202 199 197 203 Q 189 208 187 219 L 188 234 L 195 255 L 225 313 L 225 321 L 222 334 L 222 344 L 221 345 L 221 420 L 222 421 L 223 440 L 230 476 L 241 505 L 241 508 L 242 509 L 237 507 Q 233 506 232 509 L 232 514 L 248 542 L 252 552 L 251 556 L 253 561 Q 255 565 257 562 L 257 554 L 252 538 L 238 515 L 239 511 L 245 513 Q 246 515 247 513 L 238 485 L 230 454 L 228 431 L 227 430 L 227 405 L 226 404 L 226 354 L 227 353 L 227 336 L 230 322 L 230 313 L 226 303 L 199 251 L 193 232 L 193 217 L 196 211 L 206 205 L 216 207 L 226 213 L 227 203 L 232 193 Q 236 187 244 184 Q 253 183 258 187 L 265 195 L 267 191 Q 270 184 279 183 L 290 187 Q 298 194 303 205 Q 306 210 305 219 L 308 218 L 315 220 L 323 231 L 327 242 L 329 253 L 329 261 L 326 278 L 320 295 L 323 299 L 329 317 L 338 360 L 352 413 L 364 433 L 380 469 L 396 487 L 399 485 L 396 480 L 397 476 L 409 498 L 414 502 Q 415 496 412 495 L 414 491 L 416 497 Q 418 502 415 504 L 420 525 L 420 533 L 422 541 L 433 561 L 436 570 L 436 574 L 440 581 L 447 600 L 447 604 L 437 617 L 450 605 L 451 610 L 450 614 Q 448 624 451 630 Q 453 633 455 632 L 454 650 L 453 651 L 453 661 L 455 668 L 455 674 L 457 683 L 459 684 L 461 676 L 461 674 L 458 660 L 458 643 L 461 628 Q 463 617 459 614 L 457 617 Q 458 623 456 627 L 454 625 L 455 620 L 455 602 L 468 586 L 470 586 L 500 558 L 526 538 L 577 506 L 598 496 L 598 494 L 580 501 L 564 512 L 531 531 Q 505 547 484 567 L 459 591 Q 462 588 461 582 L 455 577 L 453 578 L 459 583 Q 459 595 451 600 L 449 599 L 448 591 L 444 580 L 440 574 L 440 564 L 435 555 L 437 554 L 439 559 L 443 561 L 456 557 L 468 550 L 476 554 L 479 554 L 474 548 L 521 525 L 527 526 L 528 523 L 538 516 L 547 513 L 600 487 Q 602 488 601 485 L 582 491 L 550 507 L 547 507 L 549 506 L 565 488 Q 579 472 597 461 L 604 452 L 616 441 L 625 437 L 628 437 L 634 433 L 648 441 Q 657 447 660 459 L 660 462 L 657 459 Q 651 452 642 450 L 622 450 L 611 455 L 603 466 L 604 473 Q 608 478 618 477 L 618 487 L 621 492 L 629 498 L 628 515 L 627 517 Q 610 534 590 548 L 591 550 L 601 546 L 619 534 L 627 532 L 638 533 L 648 538 L 667 551 L 669 551 L 668 549 L 639 522 L 633 516 L 633 503 L 632 497 L 638 495 L 643 489 L 644 479 L 646 477 L 650 478 L 656 477 L 661 472 L 662 468 Q 661 460 664 461 L 669 469 L 689 487 L 719 522 L 720 522 L 712 509 L 713 507 L 717 509 L 747 513 L 771 519 L 775 519 L 748 511 L 710 505 L 699 491 L 690 482 L 664 457 L 656 443 L 646 434 L 636 430 L 638 423 L 641 385 L 649 367 L 653 363 Q 660 364 663 360 Q 676 347 683 329 L 683 327 L 666 352 L 660 358 L 658 358 L 660 353 L 653 357 Q 643 364 640 377 L 638 376 L 638 372 L 633 359 L 626 353 L 622 350 L 615 333 L 609 326 L 608 316 L 607 313 L 604 318 L 605 328 L 611 335 L 615 348 L 621 357 L 626 359 L 633 371 L 636 383 L 634 420 L 632 430 L 620 434 L 611 439 L 600 452 L 593 459 L 574 473 L 547 504 L 534 514 L 471 545 L 466 542 Q 456 534 450 523 L 437 492 L 435 481 L 435 472 L 434 471 L 434 440 Q 431 438 433 432 L 431 430 Q 432 415 439 406 L 438 405 L 436 406 Q 440 392 449 383 L 462 371 Q 464 372 463 370 L 463 368 Q 462 349 473 343 L 472 337 L 465 323 L 466 317 L 472 326 L 495 344 Q 488 348 484 357 L 476 363 L 474 366 L 474 367 Q 481 366 485 361 L 497 345 L 493 337 L 486 333 L 482 329 L 469 318 L 472 316 Q 470 305 465 298 L 453 279 L 453 272 L 458 270 L 465 270 L 478 274 L 478 275 L 475 274 L 468 274 L 467 276 L 474 277 L 500 288 L 522 299 L 535 309 L 516 318 L 514 322 Q 529 319 541 310 Q 543 311 542 309 L 519 292 L 489 278 L 484 277 L 484 276 L 494 278 L 520 278 L 536 271 L 543 271 L 559 276 L 563 276 L 563 273 L 560 267 L 563 267 L 596 284 L 600 284 L 597 280 L 597 278 L 620 288 L 625 288 L 629 285 L 634 284 Q 640 283 642 286 L 646 285 L 653 285 L 653 287 L 651 290 L 667 284 L 680 277 L 681 277 L 680 281 L 695 276 L 707 276 L 708 275 L 709 276 L 725 277 L 736 280 L 759 290 L 770 293 L 792 293 Q 793 291 799 292 L 816 286 L 817 286 L 813 317 L 812 318 L 808 314 L 805 312 L 804 309 L 803 313 L 808 316 L 812 322 L 807 332 Q 799 340 789 346 L 780 356 L 780 359 Q 795 379 806 403 L 811 419 L 813 438 L 814 439 L 814 463 L 813 464 L 813 474 L 810 487 L 810 492 L 806 507 L 797 522 L 788 520 L 780 521 L 794 524 L 791 530 Q 783 541 770 548 L 766 548 L 731 531 L 694 510 L 662 489 Q 659 488 660 491 L 691 513 L 730 535 Q 732 536 731 540 L 734 539 L 742 541 L 763 551 Q 765 550 764 553 L 740 564 Q 730 560 726 552 Q 723 553 724 550 L 723 550 Q 696 523 665 500 L 662 501 L 675 511 L 678 516 Q 707 539 733 566 L 713 573 L 706 574 L 704 571 L 692 576 L 672 578 L 652 590 L 637 594 L 626 594 L 613 591 L 591 582 L 568 582 L 551 579 Q 540 577 534 571 L 527 571 L 519 569 L 518 571 L 529 577 L 534 578 L 546 584 L 568 588 L 591 588 L 596 589 L 613 597 L 621 599 L 642 599 L 659 592 L 674 583 L 691 582 L 701 578 L 714 577 L 735 569 L 738 569 Q 760 591 787 610 L 787 609 L 744 569 L 742 566 L 761 559 L 769 554 L 796 565 L 796 564 L 793 560 L 776 552 Q 772 553 773 550 L 784 544 Q 792 538 797 529 L 800 527 L 803 535 L 820 561 L 845 610 L 873 633 Q 908 666 930 713 L 940 738 L 948 763 L 974 864 L 989 912 L 1001 939 L 1011 954 L 1029 970 L 1051 981 L 1055 986 L 1051 985 Q 1011 984 993 1006 L 994 1007 Q 1009 994 1034 990 L 1054 990 L 1064 992 Q 1077 996 1087 1004 L 1099 1020 L 1103 1032 Q 1104 1041 1101 1046 Q 1097 1051 1089 1053 Q 1078 1054 1073 1052 L 1075 1046 Q 1076 1035 1074 1029 L 1067 1014 L 1061 1008 L 1058 1008 L 1065 1018 L 1070 1031 Q 1072 1043 1068 1051 L 1064 1054 L 1053 1057 L 1043 1057 L 1036 1056 L 1039 1046 L 1039 1044 L 1037 1031 L 1031 1019 Q 1028 1015 1023 1014 Q 1021 1012 1020 1015 L 1022 1015 L 1029 1023 L 1032 1029 L 1034 1040 L 1034 1047 L 1031 1056 L 1024 1060 L 1012 1063 L 985 1063 L 976 1059 L 969 1050 Q 966 1049 967 1056 L 968 1057 Q 954 1056 947 1049 L 936 1036 Q 929 1017 918 1002 L 910 985 L 908 972 Q 905 974 906 979 L 899 966 L 896 963 L 893 955 L 889 937 L 889 927 L 887 920 Q 887 925 885 927 L 882 921 L 880 909 L 875 900 L 876 889 L 879 879 Q 887 860 900 847 L 928 822 Q 930 823 929 820 Q 916 823 908 833 Q 881 853 872 891 L 865 870 L 855 856 Q 852 850 846 848 L 841 843 L 838 840 L 831 830 L 824 810 L 823 810 L 823 818 L 825 827 L 833 844 L 852 858 L 864 877 L 868 896 L 877 912 L 878 924 L 880 930 Q 882 934 884 931 L 885 933 L 887 949 L 896 971 L 898 973 L 886 966 Q 879 965 878 970 Q 879 972 876 971 L 871 962 L 869 960 L 865 955 Q 863 945 859 939 Q 853 928 845 921 L 843 922 Q 847 933 854 941 L 863 961 L 861 973 L 855 970 Q 850 971 849 969 L 838 971 L 828 978 Q 827 984 831 985 L 818 993 Q 828 998 830 1011 L 830 1023 L 827 1038 L 803 1019 L 786 1012 L 776 1010 L 753 1010 L 727 1016 L 700 1028 L 654 1055 L 632 1063 L 612 1065 L 599 1071 L 589 1083 L 584 1106 L 584 1123 L 586 1132 L 597 1152 L 593 1170 L 587 1181 Q 580 1188 571 1193 L 564 1195 L 557 1195 L 562 1185 Q 564 1179 559 1181 L 553 1192 Q 548 1198 540 1201 L 518 1206 Q 500 1208 490 1203 Q 482 1197 480 1185 Q 481 1171 487 1164 Q 488 1161 486 1162 Q 478 1168 475 1180 Q 474 1196 483 1204 L 468 1208 L 446 1208 L 432 1204 Q 424 1199 422 1190 L 423 1176 L 432 1160 L 430 1159 L 421 1169 L 417 1182 Q 416 1194 422 1201 L 417 1202 Q 398 1203 389 1196 L 382 1186 L 383 1172 L 391 1157 Q 402 1143 421 1137 L 440 1115 Q 449 1103 464 1097 L 482 1093 L 497 1087 L 502 1078 L 503 1061 L 504 1060 L 504 1044 L 505 1043 L 504 957 L 503 956 L 502 940 L 501 939 L 501 907 L 500 906 L 499 894 L 497 889 L 496 895 L 495 875 L 494 874 L 495 873 L 495 863 L 496 862 L 493 845 L 493 834 L 492 833 L 489 838 L 488 838 L 488 818 L 489 817 L 489 799 L 487 791 Q 489 785 485 786 L 485 789 L 481 778 L 479 763 L 476 756 Q 473 758 474 763 L 472 760 L 469 737 L 468 736 L 468 729 L 467 728 L 467 719 L 466 718 L 466 687 L 465 686 L 465 678 L 463 677 L 461 684 L 461 724 L 462 725 L 462 733 L 469 767 L 474 776 L 477 775 L 478 784 L 485 804 L 485 817 L 484 818 L 484 828 L 483 829 L 483 841 L 485 849 L 489 854 L 490 851 L 491 854 L 491 863 L 492 864 L 491 879 L 490 880 L 491 904 L 493 910 L 495 910 L 495 905 L 497 905 L 497 918 L 498 919 L 498 927 L 497 928 L 499 954 L 501 960 L 501 1073 L 499 1079 L 492 1085 L 463 1092 Q 452 1096 445 1104 L 435 1104 L 438 1102 L 438 1099 L 432 1099 L 430 1099 L 432 1096 L 429 1092 L 414 1088 L 398 1088 L 396 1087 L 400 1084 Q 402 1085 401 1082 L 397 1078 L 380 1077 L 377 1076 L 375 1066 L 374 1064 L 372 1064 Q 363 1072 351 1077 L 346 1075 L 329 1080 L 326 1080 L 333 1072 L 335 1069 L 333 1069 L 315 1082 L 288 1096 L 283 1095 L 278 1095 L 270 1098 L 266 1098 L 276 1091 L 283 1081 L 249 1103 L 222 1111 L 206 1111 L 200 1109 L 186 1109 L 198 1101 Q 208 1091 216 1079 L 214 1078 L 219 1069 L 223 1052 L 222 1051 L 222 1039 L 221 1036 L 219 1054 L 215 1068 Q 209 1082 200 1093 Q 192 1102 182 1108 L 171 1109 L 170 1110 L 168 1109 L 156 1112 L 145 1112 L 144 1111 Q 138 1114 129 1112 L 128 1113 L 126 1113 L 139 1104 L 142 1100 L 142 1098 Q 132 1106 119 1111 L 106 1115 L 95 1117 L 87 1117 L 86 1118 L 74 1118 L 51 1114 L 34 1108 L 26 1104 L 26 1072 L 27 1071 L 28 1051 L 33 1033 L 42 1015 L 42 1011 L 39 1012 L 36 1015 L 35 1020 L 27 1035 L 25 1035 L 32 1016 L 38 1005 L 38 1000 L 32 1003 L 27 1007 L 31 997 Q 40 981 52 970 L 52 967 L 45 969 L 42 969 L 43 967 Q 50 959 61 955 L 81 950 L 92 950 L 93 949 L 107 950 L 108 951 L 112 951 L 105 947 L 96 945 L 82 945 L 66 950 L 64 950 L 97 926 Q 109 918 126 913 L 128 909 Q 120 908 117 912 Q 114 913 115 911 Q 127 900 146 896 L 177 896 L 193 899 L 193 897 L 189 892 L 188 889 L 214 902 L 231 906 Q 234 907 235 905 L 233 902 L 227 901 L 225 898 L 231 901 L 236 901 Q 243 905 253 906 Q 261 912 274 914 L 276 914 L 271 909 L 271 906 L 277 907 L 290 917 L 305 925 L 330 944 L 348 955 L 348 954 L 332 937 L 295 910 Q 288 908 287 911 L 285 909 L 264 890 Q 253 881 247 869 L 248 867 L 253 871 L 244 847 L 245 842 L 245 840 Q 246 836 243 837 Q 239 839 241 846 L 239 845 L 239 840 L 248 820 L 249 804 L 250 803 L 248 802 L 249 789 L 253 769 L 253 756 L 252 755 L 251 742 L 245 721 L 240 709 L 240 706 L 247 693 Q 246 690 249 691 L 252 694 L 251 685 L 242 667 Q 241 662 246 664 Q 250 661 251 655 L 250 642 L 242 616 L 245 614 L 246 621 L 249 623 L 251 622 L 251 615 Q 247 611 248 605 L 252 606 L 254 602 L 252 591 L 242 573 L 246 574 L 252 572 L 252 566 L 250 561 Q 251 554 249 551 Q 248 547 244 548 L 244 554 L 247 563 L 247 570 L 243 569 Q 237 568 236 572 L 248 593 L 250 600 L 249 603 Q 244 602 243 606 Q 242 610 244 612 L 242 610 Q 236 609 235 614 L 241 624 L 244 640 L 246 643 Q 247 645 245 644 Q 243 642 242 645 L 246 652 L 246 656 L 244 661 Q 239 659 237 663 L 237 668 L 246 686 L 246 688 L 235 706 L 236 712 L 244 731 L 249 758 L 247 779 L 241 808 L 241 816 L 243 816 L 241 826 L 233 839 L 234 845 L 239 850 L 246 865 L 247 866 L 242 863 L 242 869 L 246 876 L 271 903 L 268 903 L 266 908 L 251 901 L 228 894 L 220 894 L 219 897 L 222 900 L 206 894 L 188 883 L 181 882 L 181 887 L 185 894 L 174 892 L 165 892 L 164 891 L 148 891 L 132 895 L 122 900 L 107 911 L 105 915 L 107 916 Q 93 920 83 929 L 42 961 L 34 971 Q 32 972 35 973 Q 39 974 41 972 L 43 973 L 27 995 L 20 1011 L 20 1016 L 23 1016 L 29 1011 L 30 1012 Q 21 1025 18 1044 Q 16 1048 21 1047 L 23 1044 L 25 1043 L 21 1060 L 21 1108 L 24 1110 L 48 1119 L 68 1123 L 93 1123 L 108 1120 L 114 1117 L 122 1117 L 125 1118 L 140 1117 L 142 1117 L 163 1117 L 164 1116 L 187 1114 L 194 1112 L 207 1115 Q 242 1117 261 1102 L 265 1103 L 281 1098 L 283 1101 L 289 1100 L 304 1092 L 307 1092 L 322 1083 L 333 1083 Q 337 1080 344 1080 L 345 1083 L 349 1083 L 361 1077 L 371 1070 L 370 1080 L 376 1083 L 393 1084 L 389 1086 L 387 1089 L 398 1095 L 419 1095 L 424 1097 L 419 1099 L 417 1102 L 419 1103 L 427 1105 L 426 1108 L 430 1109 Q 436 1111 438 1108 L 439 1109 L 424 1128 L 413 1136 L 397 1144 Q 381 1155 376 1177 L 376 1186 L 380 1196 Q 387 1204 400 1207 Q 414 1209 423 1205 L 425 1205 L 431 1210 L 446 1214 L 466 1214 L 476 1212 L 485 1208 L 502 1212 Q 533 1213 551 1199 L 560 1201 L 569 1200 L 583 1192 L 593 1181 L 597 1173 L 602 1158 L 602 1160 L 611 1167 L 615 1173 L 618 1174 L 624 1174 L 643 1170 L 690 1170 L 691 1171 L 706 1171 L 707 1172 L 728 1173 L 729 1174 L 741 1174 L 742 1175 L 779 1175 Q 780 1173 786 1174 L 802 1168 L 815 1160 Q 830 1147 836 1126 Q 835 1123 838 1124 Q 849 1115 852 1098 L 852 1084 L 849 1073 L 829 1042 L 834 1029 L 834 1016 L 835 1015 L 834 1006 L 826 992 L 836 988 L 837 986 L 836 983 L 841 982 L 844 979 L 843 977 Q 837 978 835 982 L 834 979 L 838 976 L 849 975 L 850 974 L 863 979 L 866 978 L 866 967 L 868 966 L 873 975 Q 874 978 878 977 L 880 974 L 884 971 L 887 971 L 898 978 L 905 988 L 938 1049 Q 946 1058 961 1062 Q 966 1064 968 1061 L 971 1061 L 979 1067 L 989 1069 L 1014 1068 L 1026 1065 L 1033 1061 Q 1038 1060 1040 1062 L 1055 1062 L 1060 1061 L 1070 1056 L 1077 1058 L 1088 1058 L 1098 1055 L 1102 1052 L 1107 1044 L 1108 1039 L 1108 1031 L 1106 1023 L 1098 1009 L 1080 993 L 1064 988 L 1059 981 Q 1053 973 1041 972 L 1027 962 Q 1016 953 1009 942 L 1001 928 L 993 909 L 982 875 L 982 871 L 973 841 L 972 833 L 966 813 L 954 762 L 937 713 Q 918 670 887 639 Q 871 622 852 609 L 848 605 L 826 560 L 806 531 L 805 528 Q 846 539 878 560 L 879 560 Q 847 534 801 523 L 811 509 L 813 504 L 818 478 L 819 461 L 820 460 L 820 444 L 819 443 L 818 425 L 811 400 L 799 378 L 788 364 L 784 356 L 790 350 L 804 341 Q 812 336 816 326 L 820 304 L 821 291 L 822 290 L 822 283 L 823 282 Q 824 278 822 277 L 806 285 L 793 288 L 772 288 Q 770 286 766 287 L 733 273 L 723 271 L 716 271 L 715 270 L 698 271 L 689 274 Q 685 275 686 273 L 687 271 L 676 274 L 662 282 L 643 281 L 640 279 Q 629 279 623 284 L 598 274 Q 593 273 592 276 L 594 279 L 565 263 L 558 261 L 554 263 L 557 271 L 539 266 L 532 267 L 518 274 L 500 274 L 464 264 L 459 264 L 453 266 L 447 274 L 450 284 L 464 304 L 466 311 L 467 312 L 460 310 L 459 316 Q 461 329 468 337 L 468 342 Q 461 348 458 358 L 458 366 L 459 367 L 458 370 L 454 372 Q 441 382 433 398 L 429 411 L 429 419 L 426 428 Q 425 435 428 438 L 428 472 L 432 493 Q 441 526 464 547 L 446 556 L 444 556 L 437 549 L 435 550 L 424 532 L 423 517 L 422 516 L 422 499 Q 421 490 416 485 L 409 488 L 398 470 L 395 467 L 392 469 L 393 474 L 393 476 L 384 466 L 371 436 L 356 409 L 344 358 L 338 340 L 338 334 L 335 320 L 330 305 L 324 294 L 328 287 L 333 268 Q 336 235 322 220 Q 318 214 309 213 L 307 203 L 297 188 L 288 180 L 279 178 Z M 246 193 L 244 194 Q 239 197 237 204 L 237 212 L 241 221 L 248 225 L 255 224 L 259 219 L 259 209 L 254 197 Q 251 193 246 193 Z M 282 193 L 280 194 L 275 200 L 273 210 L 276 221 L 284 225 L 288 224 Q 292 221 294 215 Q 296 203 291 198 Q 289 192 282 193 Z M 209 218 L 207 219 L 203 225 Q 202 238 208 245 L 217 251 L 223 251 L 228 244 L 227 235 L 220 223 L 215 218 L 209 218 Z M 261 229 L 250 234 L 244 243 L 242 255 L 230 273 L 229 277 L 230 289 L 240 296 Q 248 297 253 295 L 264 288 L 275 288 L 286 293 L 292 293 L 298 290 Q 304 287 305 279 L 305 275 L 302 267 L 294 260 L 286 253 L 279 239 Q 274 230 261 229 Z M 308 230 Q 301 234 299 244 L 299 250 L 302 258 L 309 263 L 314 262 Q 318 259 320 253 Q 322 240 317 234 Q 315 229 308 230 Z M 780 300 L 780 303 L 784 302 L 780 300 Z M 768 304 L 744 316 Q 740 315 741 318 L 754 325 Q 757 326 756 331 L 777 342 Q 782 344 781 341 L 775 336 Q 771 337 772 335 Q 769 329 761 330 L 760 323 L 751 319 Q 748 320 749 317 L 773 305 L 768 304 Z M 280 311 L 271 315 L 264 315 L 262 315 L 250 319 L 245 324 L 241 336 L 241 351 L 242 352 L 242 404 L 244 415 L 249 427 Q 255 436 269 439 Q 280 439 286 433 Q 298 423 301 404 L 301 394 Q 297 414 286 427 Q 281 432 273 434 Q 264 434 259 430 Q 250 423 248 411 Q 249 406 247 405 L 247 370 L 246 369 L 246 358 L 245 357 L 245 335 L 248 327 L 257 320 Q 271 322 279 316 Q 287 315 291 318 L 296 326 L 300 340 L 301 357 L 302 358 L 303 380 L 304 374 L 304 356 L 305 355 L 305 340 L 301 325 L 298 319 L 291 312 L 280 311 Z M 553 401 L 541 404 L 529 411 L 518 412 L 508 415 L 497 422 Q 490 429 486 439 L 475 469 L 476 472 L 492 438 L 498 430 L 496 429 L 500 425 L 516 416 L 527 416 L 529 420 L 532 431 L 537 439 Q 545 452 563 455 L 569 455 L 577 453 L 594 443 Q 600 442 603 445 L 597 428 L 590 417 Q 584 409 576 405 L 563 401 L 553 401 Z M 707 404 Q 691 407 683 416 Q 670 428 665 446 L 673 446 L 688 454 L 696 456 L 705 456 L 713 454 L 727 445 L 735 435 L 737 429 L 739 427 L 747 427 L 729 409 Q 720 404 707 404 Z M 750 427 Q 751 431 757 433 Q 767 441 773 454 L 776 456 L 768 439 Q 762 430 750 427 Z M 285 482 L 285 489 L 297 509 L 307 518 L 313 520 L 309 511 L 315 513 L 338 531 L 339 531 L 335 524 L 328 516 L 313 507 L 309 503 L 305 505 L 307 510 Q 309 511 307 512 L 299 504 L 285 482 Z M 709 582 L 696 591 L 676 600 Q 665 609 651 615 L 650 617 L 698 593 L 712 583 L 709 582 Z M 545 588 L 545 590 L 565 600 L 576 603 L 589 604 L 614 616 L 616 616 L 591 602 L 573 600 L 553 590 L 545 588 Z M 655 657 L 651 661 Q 652 667 648 669 L 639 664 L 627 671 Q 623 670 625 674 L 629 674 L 638 669 L 649 673 L 652 670 L 656 661 L 662 669 L 674 680 L 680 684 L 683 684 L 686 671 L 690 677 L 702 687 L 704 687 L 704 681 L 722 694 L 735 699 L 738 699 L 737 698 Q 735 686 740 681 L 762 702 Q 767 708 777 711 L 780 711 L 770 703 L 749 683 L 741 678 L 737 679 L 733 686 L 733 696 Q 717 689 707 677 L 703 676 L 700 681 L 685 665 L 682 669 Q 683 676 681 680 L 655 657 Z M 628 662 L 609 675 Q 606 676 607 673 L 605 673 L 590 683 L 556 711 L 554 714 L 568 707 L 601 681 L 603 682 L 612 678 L 628 665 L 628 662 Z M 813 705 L 803 711 L 797 711 L 795 711 L 792 712 L 798 715 L 804 715 L 814 709 Q 820 710 823 707 Q 825 708 824 705 L 822 706 L 821 705 L 813 705 Z M 405 725 L 401 743 L 400 760 L 399 761 L 399 773 L 398 774 L 399 794 L 404 818 L 406 819 L 406 810 L 403 795 L 403 785 L 402 784 L 402 764 L 403 763 L 403 752 L 404 751 L 404 738 L 405 737 L 405 725 Z M 719 779 L 718 781 L 727 797 Q 736 808 749 815 L 751 815 L 753 815 Q 758 822 767 826 Q 770 827 769 824 L 769 822 L 778 827 L 782 831 Q 796 835 806 843 L 814 853 L 825 862 L 835 865 L 847 881 L 850 883 Q 847 871 840 864 L 836 860 L 830 860 L 824 856 L 799 834 L 765 817 Q 763 815 762 818 L 757 814 Q 754 815 755 813 L 749 807 L 747 808 L 743 806 Q 729 794 719 779 Z M 681 791 L 683 799 L 697 819 L 713 831 L 718 833 L 728 834 Q 739 846 759 851 L 764 851 L 760 846 Q 758 844 761 843 L 788 853 L 804 853 L 805 852 L 801 849 L 793 849 L 792 848 L 788 849 L 773 842 L 758 839 L 754 842 L 758 847 Q 742 842 732 831 L 724 829 L 720 830 L 720 832 L 718 830 L 707 821 Q 692 808 681 791 Z M 578 800 L 569 802 L 557 808 L 550 808 L 543 810 L 524 821 L 523 823 L 542 814 Q 546 812 555 813 L 570 806 L 579 804 L 596 804 Q 597 806 602 805 Q 615 809 626 816 L 628 816 Q 619 805 604 801 L 599 800 L 578 800 Z M 414 832 Q 418 860 433 879 L 434 878 L 435 870 L 459 917 L 472 936 L 474 937 L 465 922 Q 452 891 436 865 L 431 861 L 430 866 L 414 832 Z M 564 847 Q 549 850 540 857 L 532 857 Q 520 862 513 871 L 514 872 L 531 861 L 533 861 L 535 861 L 541 861 L 555 854 L 569 851 L 581 851 L 582 852 L 600 853 L 601 854 L 604 854 Q 597 849 587 847 L 564 847 Z M 936 862 L 924 865 L 909 873 Q 897 880 893 895 L 895 895 L 902 885 L 914 875 L 937 863 L 936 862 Z M 553 888 Q 537 892 526 901 L 520 908 L 553 892 L 574 899 L 592 912 L 593 912 L 590 908 Q 582 899 571 893 L 558 888 L 553 888 Z M 683 888 L 687 906 L 687 910 Q 674 923 667 941 L 662 932 Q 655 922 644 918 L 644 920 L 658 934 L 664 945 L 664 948 Q 657 958 654 973 L 647 987 L 646 994 L 641 1008 L 635 1037 L 631 1048 L 632 1052 L 647 1014 L 654 983 L 659 975 L 663 961 L 669 947 Q 682 914 706 893 L 706 891 L 690 906 Q 691 892 683 888 Z M 950 904 L 933 909 L 923 915 L 912 928 L 913 929 L 928 917 L 949 908 L 961 905 L 950 904 Z M 562 934 L 550 940 L 548 939 L 544 940 Q 541 941 542 939 L 539 936 L 527 944 L 521 951 Q 530 949 536 942 L 543 945 Q 556 945 564 939 Q 574 940 580 938 Q 574 932 562 934 Z M 188 937 L 189 939 Q 201 944 210 953 Q 224 966 233 984 L 241 1009 L 242 1027 L 244 1026 L 244 1010 L 239 988 Q 234 973 225 963 Q 212 944 188 937 Z M 590 938 L 590 939 Q 605 948 618 961 L 637 984 Q 636 986 639 985 L 638 978 L 626 962 L 605 944 L 590 938 Z M 245 940 L 245 942 L 261 953 Q 278 967 284 992 L 285 992 Q 283 969 271 957 Q 261 945 245 940 Z M 945 949 L 936 953 L 923 967 L 924 968 Q 935 956 952 950 L 945 949 Z M 162 962 L 161 964 Q 173 975 181 992 L 187 1011 L 187 1019 L 188 1020 L 188 1034 L 186 1045 L 181 1062 L 177 1070 L 178 1071 L 183 1062 L 187 1050 L 191 1029 L 191 1010 L 188 997 Q 183 982 173 972 L 162 962 Z M 1087 1011 L 1086 1013 L 1089 1015 L 1087 1011 Z " /><path fill="rgb(250,250,250)" stroke="rgb(250,250,250)" stroke-width="1" opacity="1" d="M 246.5 197 L 252 201.5 L 256 215.5 L 251.5 222 L 248.5 222 L 244 217.5 L 242 213.5 L 241 205.5 L 243 199 L 246.5 197 Z " /><path fill="rgb(250,250,250)" stroke="rgb(250,250,250)" stroke-width="1" opacity="1" d="M 282.5 197 Q 287.5 196.5 288 200.5 Q 291.8 205.2 290 215.5 L 285.5 221 Q 279.8 221.8 279 217.5 Q 276 214.5 277 207.5 L 279 200.5 L 282.5 197 Z " /><path fill="rgb(250,250,250)" stroke="rgb(250,250,250)" stroke-width="1" opacity="1" d="M 209.5 222 Q 215.9 222.1 218 226.5 L 223 235.5 L 224 242.5 L 221.5 247 Q 213.4 247.1 211 241.5 L 207 232.5 L 207 225.5 L 209.5 222 Z " /><path fill="rgb(250,250,250)" stroke="rgb(250,250,250)" stroke-width="1" opacity="1" d="M 258.5 234 L 268.5 235 L 274 239.5 Q 279.1 252.9 288.5 262 L 298 268.5 Q 300.9 272.1 300 279.5 L 294.5 287 Q 291.3 289.3 284.5 288 L 275.5 284 L 265.5 284 L 253.5 290 L 243.5 292 L 237 289 L 234 283.5 L 234 276.5 L 236 271.5 L 244 261.5 L 247 255.5 L 250 241.5 L 254.5 236 L 258.5 234 Z " /><path fill="rgb(250,250,250)" stroke="rgb(250,250,250)" stroke-width="1" opacity="1" d="M 309.5 234 Q 312.8 232.9 312 235.5 Q 317.8 240.2 316 252.5 L 314 257 L 310.5 259 L 305 254.5 L 304 242.5 Q 305.3 236.8 309.5 234 Z " /><path fill="rgb(250,250,250)" stroke="rgb(250,250,250)" stroke-width="1" opacity="1" d="M 553.5 407 L 558 407.5 Q 549.1 413.1 550 428.5 Q 551.9 440.1 560.5 445 L 570 436.5 L 573 427.5 L 573 419 L 568.5 421 L 566 417.5 L 569.5 415 L 573 417 L 572 411.5 L 573.5 412 L 583 418.5 L 588 425.5 L 588 431.5 Q 585.9 439.9 579.5 444 L 570.5 448 L 560.5 448 Q 549.4 444.6 543 436.5 Q 536.5 431 536 419.5 L 538 413.5 L 540.5 411 L 553.5 407 Z " /><path fill="rgb(250,250,250)" stroke="rgb(250,250,250)" stroke-width="1" opacity="1" d="M 710.5 411 L 718.5 412 Q 726.5 414.5 731 420.5 Q 732.3 428.8 729 432.5 L 718.5 444 L 705.5 450 L 693.5 450 Q 685.2 448.3 681 442.5 Q 677.2 439.3 678 431.5 L 689.5 418 L 694.5 415 L 694 416.5 Q 691.1 421.1 692 429.5 Q 693.7 440.8 701.5 446 L 705.5 448 Q 715.9 440.9 716 423.5 L 715 418.5 L 710.5 411 Z " /><path fill="rgb(250,250,250)" stroke="rgb(250,250,250)" stroke-width="1" opacity="1" d="M 708.5 417 Q 712.5 416.5 713 419.5 L 711.5 422 Q 706.8 422.8 706 419.5 L 708.5 417 Z " /><path fill="rgb(250,250,250)" stroke="rgb(250,250,250)" stroke-width="1" opacity="1" d="M 592.5 434 L 594 439 L 590.5 440 L 591 438.5 L 592.5 434 Z " /><path fill="rgb(250,250,250)" stroke="rgb(250,250,250)" stroke-width="1" opacity="1" d="M 673.5 440 L 674 443 Q 671.3 444.1 672 441.5 L 673.5 440 Z " /><path fill="rgb(250,250,250)" stroke="rgb(250,250,250)" stroke-width="1" opacity="1" d="M 620.5 455 L 643.5 455 Q 651.3 456.2 655 461.5 Q 657.7 463.8 657 469.5 Q 654.5 474.3 648 474 Q 649 470.2 646.5 469 L 644.5 468 L 640 471.5 L 639 476.5 Q 641.8 479.2 641 485.5 L 636.5 491 L 630.5 495 L 621 485.5 L 620 482.5 L 624 474.5 L 622 469 L 616.5 468 Q 614 469.2 615 473 Q 609.4 472.9 607 468.5 L 610 460 L 620.5 455 Z " /><path fill="rgb(250,250,250)" stroke="rgb(250,250,250)" stroke-width="1" opacity="1" d="M 630.5 520 L 637.5 528 Q 639.8 527.3 639 529.5 L 637.5 529 L 627.5 528 L 622.5 529 L 630.5 520 Z " /><path fill="rgb(250,250,250)" stroke="rgb(250,250,250)" stroke-width="1" opacity="1" d="M 474.5 765 Q 476.8 766.8 476 771.5 L 475 771.5 L 474.5 765 Z " /><path fill="rgb(250,250,250)" stroke="rgb(250,250,250)" stroke-width="1" opacity="1" d="M 489.5 844 L 490 847.5 L 489 847.5 L 489.5 844 Z " /><path fill="rgb(250,250,250)" stroke="rgb(250,250,250)" stroke-width="1" opacity="1" d="M 756.5 1015 L 776.5 1016 L 791.5 1020 Q 811.2 1028.3 824 1043.5 Q 829.7 1049.3 832 1058.5 Q 839.8 1064.8 844 1074.5 Q 847 1083.5 847 1095.5 L 845 1104.5 L 841 1112.5 L 830 1125.5 L 830 1127.5 L 830 1130.5 L 823 1142.5 L 810.5 1156 Q 802.1 1163.1 790.5 1167 L 781.5 1169 L 773.5 1169 L 772.5 1170 L 755.5 1170 L 754.5 1169 L 739.5 1169 L 738.5 1168 L 726.5 1168 L 725.5 1167 L 687.5 1165 L 686.5 1164 L 653.5 1164 L 652.5 1165 L 637.5 1165 L 623.5 1168 Q 610.2 1162.8 603 1151.5 Q 595.3 1142.2 591 1129.5 L 589 1119.5 L 589 1106.5 L 593 1086.5 Q 595.9 1078.4 602.5 1074 L 612.5 1070 L 627.5 1069 L 643.5 1065 L 673.5 1051 Q 693.9 1036.9 717.5 1026 L 737.5 1019 L 756.5 1015 Z M 771 1026 L 765 1029 Q 760 1032 758 1039 L 759 1045 L 765 1049 Q 777 1051 784 1046 Q 789 1042 791 1036 L 790 1032 Q 785 1024 771 1026 Z M 805 1041 L 794 1045 L 788 1052 Q 787 1060 790 1064 L 796 1067 Q 805 1068 810 1065 L 816 1058 Q 818 1050 815 1047 Q 812 1042 805 1041 Z M 739 1051 L 729 1055 Q 723 1059 721 1068 L 722 1077 Q 725 1084 731 1089 Q 730 1098 733 1104 L 733 1107 L 727 1123 Q 727 1133 732 1138 Q 736 1143 744 1145 Q 755 1147 761 1142 L 764 1139 L 771 1124 L 777 1118 L 791 1110 Q 797 1106 799 1097 Q 801 1085 796 1081 L 790 1074 Q 779 1068 765 1065 Q 754 1055 739 1051 Z M 820 1079 L 816 1081 L 810 1089 L 810 1100 L 811 1102 Q 814 1106 821 1108 Q 827 1108 830 1105 Q 835 1102 837 1095 Q 838 1088 835 1085 Q 832 1077 820 1079 Z M 630 1082 L 619 1084 L 615 1086 L 610 1093 Q 608 1099 611 1101 L 611 1108 L 605 1121 L 605 1130 L 608 1140 L 615 1145 L 643 1145 L 644 1144 L 662 1144 L 663 1143 L 691 1144 L 700 1146 L 703 1146 L 702 1144 L 687 1143 L 686 1142 L 673 1142 L 672 1141 L 629 1141 L 628 1142 L 617 1140 L 612 1135 L 610 1126 Q 611 1115 616 1108 L 616 1099 L 615 1098 L 616 1091 L 623 1086 L 632 1083 L 630 1082 Z M 796 1125 L 789 1128 Q 784 1131 782 1138 Q 781 1145 785 1148 Q 788 1152 794 1153 L 800 1153 L 810 1148 L 814 1139 L 812 1131 Q 808 1123 796 1125 Z " /><path fill="rgb(250,250,250)" stroke="rgb(250,250,250)" stroke-width="1" opacity="1" d="M 774.5 1029 Q 782.7 1028.8 787 1032.5 L 788 1034.5 L 779.5 1044 Q 775.5 1047 767.5 1046 L 764 1043.5 Q 761.4 1042.1 762 1037.5 L 765 1032 L 774.5 1029 Z " /><path fill="rgb(250,250,250)" stroke="rgb(250,250,250)" stroke-width="1" opacity="1" d="M 799.5 1046 Q 807 1045 810 1047 L 813 1053.5 L 807.5 1061 Q 804.9 1064.4 797.5 1063 L 793 1061 Q 791.4 1058.9 792 1053.5 L 797.5 1047 L 799.5 1046 Z " /><path fill="rgb(250,250,250)" stroke="rgb(250,250,250)" stroke-width="1" opacity="1" d="M 738.5 1056 L 746.5 1059 L 765.5 1071 L 771.5 1071 L 777.5 1073 L 787.5 1078 L 792 1082.5 Q 796 1086 795 1094.5 Q 792.5 1103.5 785.5 1108 Q 774.8 1112.3 768 1120.5 L 763 1132.5 L 758.5 1138 L 755.5 1140 L 746.5 1141 L 736 1134.5 Q 731.8 1129.7 733 1119.5 Q 737.4 1113.9 737 1103.5 L 735 1093.5 L 736 1089.5 L 727 1075.5 L 726 1068.5 L 731.5 1059 L 738.5 1056 Z " /><path fill="rgb(250,250,250)" stroke="rgb(250,250,250)" stroke-width="1" opacity="1" d="M 823.5 1082 Q 829.9 1082.7 832 1087.5 L 833 1093.5 L 826.5 1102 L 820.5 1104 L 816 1102 L 813 1095.5 L 813 1092.5 Q 814.3 1086.8 818.5 1084 L 823.5 1082 Z " /><path fill="rgb(250,250,250)" stroke="rgb(250,250,250)" stroke-width="1" opacity="1" d="M 797.5 1128 Q 805 1128 808 1132.5 L 809 1140.5 L 803.5 1147 Q 800.6 1149.6 794.5 1149 L 788 1144.5 L 786 1138.5 L 790.5 1131 L 797.5 1128 Z " /></svg>